<?xml version="1.0" encoding="utf-8"?>
<!-- Generator: Adobe Illustrator 16.0.0, SVG Export Plug-In . SVG Version: 6.00 Build 0)  -->
<!DOCTYPE svg PUBLIC "-//W3C//DTD SVG 1.1//EN" "http://www.w3.org/Graphics/SVG/1.1/DTD/svg11.dtd">
<svg version="1.1" xmlns="http://www.w3.org/2000/svg" xmlns:xlink="http://www.w3.org/1999/xlink" x="0px" y="0px"
	 width="162.551px" height="166.352px" viewBox="0 0 162.551 166.352" enable-background="new 0 0 162.551 166.352"
	 xml:space="preserve">
<g id="Background" display="none">
	
		<radialGradient id="SVGID_1_" cx="-178.6963" cy="3.6504" r="563.4035" gradientTransform="matrix(1.0001 0 0 1.0001 0.2268 0.2037)" gradientUnits="userSpaceOnUse">
		<stop  offset="0" style="stop-color:#FFFFFF;stop-opacity:0"/>
		<stop  offset="0.129" style="stop-color:#FBFBFB;stop-opacity:0.0387"/>
		<stop  offset="0.2617" style="stop-color:#EFEFEF;stop-opacity:0.0785"/>
		<stop  offset="0.3961" style="stop-color:#DADADA;stop-opacity:0.1188"/>
		<stop  offset="0.5317" style="stop-color:#BDBEBD;stop-opacity:0.1595"/>
		<stop  offset="0.6683" style="stop-color:#989998;stop-opacity:0.2005"/>
		<stop  offset="0.8057" style="stop-color:#6B6C6A;stop-opacity:0.2417"/>
		<stop  offset="0.9413" style="stop-color:#363735;stop-opacity:0.2824"/>
		<stop  offset="1" style="stop-color:#1D1E1C;stop-opacity:0.3"/>
	</radialGradient>
	<rect x="-578.488" y="-396.146" display="inline" fill="url(#SVGID_1_)" width="800" height="800"/>
	<g display="inline">
		<g>
			<path fill="#4B4B4B" d="M-290.025,379.506v-0.258c-0.349,0.398-0.692,0.725-1.031,0.973c-0.338,0.252-0.706,0.441-1.102,0.57
				c-0.396,0.133-0.827,0.195-1.296,0.195c-0.621,0-1.196-0.131-1.725-0.393c-0.528-0.264-0.986-0.639-1.372-1.127
				c-0.387-0.486-0.68-1.059-0.879-1.719c-0.199-0.658-0.299-1.371-0.299-2.137c0-1.621,0.396-2.885,1.188-3.791
				c0.792-0.904,1.833-1.357,3.125-1.357c0.747,0,1.377,0.129,1.89,0.385c0.513,0.256,1.013,0.652,1.501,1.182v-3.826
				c0-0.533,0.105-0.934,0.318-1.207c0.211-0.271,0.514-0.408,0.907-0.408c0.393,0,0.694,0.125,0.907,0.375
				c0.212,0.252,0.318,0.619,0.318,1.107v11.436c0,0.494-0.113,0.863-0.342,1.111c-0.228,0.246-0.522,0.369-0.883,0.369
				c-0.354,0-0.647-0.127-0.879-0.383C-289.91,380.346-290.025,379.98-290.025,379.506z M-295.125,375.697
				c0,0.703,0.109,1.301,0.328,1.795c0.219,0.494,0.518,0.865,0.897,1.115c0.38,0.25,0.795,0.377,1.244,0.377
				c0.456,0,0.872-0.119,1.25-0.357c0.376-0.236,0.677-0.602,0.902-1.092c0.225-0.49,0.337-1.105,0.337-1.838
				c0-0.691-0.112-1.285-0.337-1.783c-0.225-0.496-0.528-0.875-0.912-1.139c-0.383-0.262-0.803-0.393-1.258-0.393
				c-0.475,0-0.899,0.135-1.273,0.402c-0.374,0.27-0.663,0.654-0.869,1.158C-295.023,374.447-295.125,375.031-295.125,375.697z"/>
			<path fill="#4B4B4B" d="M-278.591,376.354h-5.071c0.006,0.588,0.125,1.107,0.356,1.557c0.23,0.449,0.538,0.789,0.921,1.016
				c0.383,0.229,0.806,0.342,1.268,0.342c0.31,0,0.593-0.035,0.85-0.107c0.257-0.074,0.505-0.188,0.746-0.344
				c0.241-0.154,0.462-0.32,0.665-0.498c0.202-0.178,0.464-0.42,0.788-0.723c0.133-0.113,0.323-0.172,0.571-0.172
				c0.266,0,0.48,0.074,0.645,0.221c0.165,0.146,0.248,0.35,0.248,0.617c0,0.234-0.093,0.506-0.275,0.82
				c-0.185,0.314-0.462,0.615-0.832,0.902c-0.372,0.289-0.835,0.527-1.397,0.717c-0.56,0.191-1.204,0.285-1.933,0.285
				c-1.665,0-2.96-0.475-3.884-1.424s-1.386-2.238-1.386-3.865c0-0.768,0.113-1.479,0.341-2.133
				c0.229-0.656,0.561-1.217,0.997-1.686c0.437-0.469,0.975-0.828,1.615-1.078c0.639-0.25,1.349-0.375,2.127-0.375
				c1.013,0,1.882,0.213,2.606,0.641c0.726,0.428,1.27,0.98,1.63,1.656c0.36,0.678,0.542,1.369,0.542,2.07
				c0,0.654-0.187,1.076-0.56,1.27S-277.913,376.354-278.591,376.354z M-283.663,374.881h4.702c-0.063-0.887-0.303-1.551-0.717-1.99
				c-0.415-0.441-0.96-0.66-1.638-0.66c-0.646,0-1.177,0.223-1.591,0.668C-283.322,373.346-283.573,374.006-283.663,374.881z"/>
			<path fill="#4B4B4B" d="M-266.776,377.596c0,0.715-0.173,1.328-0.522,1.838c-0.348,0.51-0.862,0.896-1.543,1.16
				c-0.68,0.262-1.508,0.393-2.483,0.393c-0.931,0-1.729-0.143-2.394-0.428c-0.665-0.283-1.156-0.641-1.472-1.066
				c-0.317-0.43-0.475-0.857-0.475-1.289c0-0.285,0.101-0.527,0.304-0.73c0.202-0.201,0.459-0.303,0.77-0.303
				c0.271,0,0.48,0.066,0.626,0.199s0.286,0.32,0.417,0.559c0.266,0.465,0.585,0.807,0.956,1.037
				c0.37,0.227,0.875,0.342,1.515,0.342c0.519,0,0.945-0.117,1.277-0.348c0.332-0.232,0.498-0.496,0.498-0.793
				c0-0.457-0.172-0.787-0.518-0.996c-0.345-0.209-0.914-0.41-1.705-0.6c-0.893-0.221-1.619-0.455-2.18-0.699
				c-0.561-0.242-1.008-0.564-1.344-0.963s-0.503-0.891-0.503-1.473c0-0.518,0.155-1.01,0.465-1.473
				c0.311-0.461,0.768-0.83,1.374-1.105c0.604-0.275,1.333-0.414,2.188-0.414c0.671,0,1.275,0.07,1.809,0.211
				c0.536,0.137,0.983,0.326,1.34,0.561c0.358,0.232,0.63,0.492,0.816,0.777s0.28,0.563,0.28,0.836c0,0.297-0.1,0.541-0.298,0.732
				c-0.199,0.188-0.482,0.285-0.851,0.285c-0.266,0-0.492-0.076-0.679-0.23c-0.187-0.15-0.4-0.379-0.641-0.682
				c-0.196-0.254-0.426-0.457-0.693-0.609c-0.266-0.152-0.627-0.227-1.083-0.227c-0.469,0-0.857,0.098-1.168,0.299
				c-0.31,0.199-0.465,0.447-0.465,0.744c0,0.273,0.114,0.496,0.341,0.67c0.229,0.176,0.535,0.32,0.922,0.434
				c0.386,0.113,0.917,0.252,1.596,0.416c0.803,0.197,1.46,0.432,1.97,0.703c0.509,0.271,0.896,0.594,1.16,0.965
				C-266.907,376.699-266.776,377.121-266.776,377.596z"/>
			<path fill="#4B4B4B" d="M-264.127,369.238c-0.361,0-0.669-0.111-0.926-0.332s-0.385-0.535-0.385-0.941
				c0-0.367,0.131-0.668,0.394-0.906s0.569-0.357,0.917-0.357c0.336,0,0.633,0.107,0.893,0.324c0.26,0.215,0.39,0.527,0.39,0.939
				c0,0.4-0.127,0.711-0.381,0.936C-263.479,369.125-263.779,369.238-264.127,369.238z M-262.845,371.916v7.494
				c0,0.52-0.124,0.912-0.371,1.178c-0.248,0.266-0.56,0.398-0.94,0.398s-0.689-0.135-0.926-0.408
				c-0.238-0.271-0.356-0.662-0.356-1.168v-7.418c0-0.512,0.118-0.898,0.356-1.158c0.237-0.26,0.546-0.391,0.926-0.391
				s0.693,0.131,0.94,0.391C-262.968,371.094-262.845,371.455-262.845,371.916z"/>
			<path fill="#4B4B4B" d="M-251.486,372.344v7.531c0,0.861-0.093,1.604-0.277,2.225c-0.182,0.619-0.477,1.133-0.883,1.537
				c-0.405,0.404-0.936,0.707-1.59,0.902c-0.655,0.197-1.471,0.295-2.446,0.295c-0.893,0-1.69-0.125-2.394-0.375
				c-0.702-0.252-1.243-0.574-1.624-0.969c-0.379-0.396-0.57-0.803-0.57-1.221c0-0.316,0.108-0.576,0.324-0.773
				c0.215-0.201,0.475-0.301,0.778-0.301c0.38,0,0.712,0.168,0.998,0.504c0.139,0.17,0.283,0.344,0.432,0.518
				c0.149,0.176,0.314,0.324,0.494,0.447c0.181,0.123,0.397,0.215,0.65,0.275c0.253,0.059,0.545,0.09,0.874,0.09
				c0.671,0,1.192-0.094,1.563-0.281c0.371-0.186,0.63-0.447,0.779-0.783c0.149-0.334,0.236-0.693,0.261-1.078
				c0.025-0.383,0.044-0.998,0.057-1.848c-0.399,0.559-0.859,0.982-1.382,1.273c-0.522,0.291-1.145,0.438-1.866,0.438
				c-0.868,0-1.625-0.223-2.275-0.666c-0.648-0.443-1.147-1.063-1.495-1.861c-0.349-0.799-0.522-1.719-0.522-2.764
				c0-0.777,0.105-1.482,0.317-2.107c0.213-0.629,0.515-1.156,0.907-1.588c0.393-0.43,0.845-0.754,1.358-0.973
				s1.076-0.328,1.691-0.328c0.734,0,1.371,0.143,1.909,0.422c0.538,0.283,1.039,0.725,1.5,1.326v-0.352
				c0-0.449,0.11-0.797,0.332-1.045c0.222-0.246,0.507-0.371,0.855-0.371c0.5,0,0.832,0.164,0.997,0.49
				C-251.569,371.26-251.486,371.73-251.486,372.344z M-258.999,375.631c0,1.051,0.229,1.846,0.688,2.383
				c0.459,0.539,1.053,0.809,1.781,0.809c0.43,0,0.837-0.117,1.22-0.348c0.384-0.23,0.695-0.58,0.937-1.045
				c0.24-0.465,0.361-1.029,0.361-1.695c0-1.057-0.232-1.881-0.698-2.469s-1.078-0.883-1.838-0.883c-0.741,0-1.334,0.281-1.78,0.846
				C-258.776,373.791-258.999,374.592-258.999,375.631z"/>
			<path fill="#4B4B4B" d="M-247.365,371.879v0.313c0.455-0.602,0.954-1.043,1.496-1.324s1.163-0.424,1.866-0.424
				c0.684,0,1.295,0.15,1.833,0.447c0.538,0.299,0.941,0.719,1.206,1.262c0.172,0.318,0.282,0.66,0.333,1.027
				c0.051,0.367,0.077,0.836,0.077,1.406v4.824c0,0.52-0.119,0.912-0.357,1.178c-0.237,0.266-0.546,0.398-0.926,0.398
				c-0.387,0-0.7-0.135-0.94-0.408c-0.241-0.271-0.361-0.662-0.361-1.168v-4.322c0-0.854-0.119-1.508-0.356-1.961
				c-0.238-0.451-0.71-0.68-1.42-0.68c-0.461,0-0.883,0.139-1.263,0.414s-0.659,0.654-0.836,1.135
				c-0.126,0.387-0.19,1.107-0.19,2.166v3.248c0,0.525-0.123,0.92-0.365,1.184c-0.244,0.262-0.559,0.393-0.945,0.393
				c-0.375,0-0.681-0.135-0.922-0.408c-0.24-0.271-0.361-0.662-0.361-1.168v-7.494c0-0.494,0.107-0.863,0.323-1.107
				c0.215-0.242,0.51-0.365,0.883-0.365c0.229,0,0.435,0.055,0.619,0.162c0.183,0.109,0.331,0.27,0.441,0.484
				S-247.365,371.568-247.365,371.879z"/>
			<path fill="#4B4B4B" d="M-231.591,376.354h-5.071c0.007,0.588,0.125,1.107,0.356,1.557c0.231,0.449,0.538,0.789,0.921,1.016
				c0.382,0.229,0.805,0.342,1.267,0.342c0.311,0,0.594-0.035,0.851-0.107c0.255-0.074,0.504-0.188,0.746-0.344
				c0.24-0.154,0.461-0.32,0.665-0.498c0.202-0.178,0.464-0.42,0.788-0.723c0.133-0.113,0.323-0.172,0.57-0.172
				c0.266,0,0.481,0.074,0.646,0.221s0.247,0.35,0.247,0.617c0,0.234-0.091,0.506-0.275,0.82s-0.461,0.615-0.832,0.902
				c-0.371,0.289-0.835,0.527-1.396,0.717c-0.561,0.191-1.205,0.285-1.933,0.285c-1.665,0-2.96-0.475-3.885-1.424
				c-0.923-0.949-1.386-2.238-1.386-3.865c0-0.768,0.114-1.479,0.342-2.133c0.228-0.656,0.561-1.217,0.998-1.686
				c0.437-0.469,0.975-0.828,1.614-1.078s1.349-0.375,2.128-0.375c1.013,0,1.881,0.213,2.606,0.641
				c0.726,0.428,1.269,0.98,1.63,1.656c0.36,0.678,0.542,1.369,0.542,2.07c0,0.654-0.187,1.076-0.561,1.27
				C-230.387,376.256-230.913,376.354-231.591,376.354z M-236.662,374.881h4.701c-0.063-0.887-0.302-1.551-0.717-1.99
				c-0.415-0.441-0.961-0.66-1.638-0.66c-0.646,0-1.177,0.223-1.592,0.668C-236.323,373.346-236.573,374.006-236.662,374.881z"/>
			<path fill="#4B4B4B" d="M-221.021,379.506v-0.258c-0.348,0.398-0.691,0.725-1.03,0.973c-0.339,0.252-0.706,0.441-1.102,0.57
				c-0.395,0.133-0.828,0.195-1.296,0.195c-0.622,0-1.196-0.131-1.724-0.393c-0.529-0.264-0.986-0.639-1.373-1.127
				c-0.387-0.486-0.679-1.059-0.878-1.719c-0.2-0.658-0.299-1.371-0.299-2.137c0-1.621,0.396-2.885,1.187-3.791
				c0.792-0.904,1.833-1.357,3.125-1.357c0.747,0,1.377,0.129,1.89,0.385s1.013,0.652,1.5,1.182v-3.826
				c0-0.533,0.106-0.934,0.319-1.207c0.211-0.271,0.515-0.408,0.907-0.408c0.392,0,0.694,0.125,0.907,0.375
				c0.212,0.252,0.318,0.619,0.318,1.107v11.436c0,0.494-0.114,0.863-0.342,1.111c-0.228,0.246-0.522,0.369-0.883,0.369
				c-0.354,0-0.647-0.127-0.879-0.383C-220.905,380.346-221.021,379.98-221.021,379.506z M-226.121,375.697
				c0,0.703,0.108,1.301,0.327,1.795c0.218,0.494,0.518,0.865,0.898,1.115c0.379,0.25,0.794,0.377,1.243,0.377
				c0.457,0,0.873-0.119,1.249-0.357c0.377-0.236,0.678-0.602,0.902-1.092c0.225-0.49,0.337-1.105,0.337-1.838
				c0-0.691-0.112-1.285-0.337-1.783c-0.224-0.496-0.528-0.875-0.912-1.139c-0.384-0.262-0.803-0.393-1.259-0.393
				c-0.474,0-0.899,0.135-1.272,0.402c-0.373,0.27-0.663,0.654-0.869,1.158S-226.121,375.031-226.121,375.697z"/>
			<path fill="#4B4B4B" d="M-210.423,368.07v3.959c0.487-0.506,0.984-0.895,1.491-1.162c0.506-0.27,1.134-0.404,1.881-0.404
				c0.861,0,1.616,0.205,2.266,0.611c0.648,0.41,1.151,1.002,1.51,1.777c0.357,0.775,0.537,1.695,0.537,2.76
				c0,0.785-0.1,1.504-0.299,2.16c-0.2,0.656-0.49,1.225-0.869,1.705c-0.38,0.48-0.841,0.854-1.382,1.117
				c-0.542,0.262-1.139,0.393-1.791,0.393c-0.399,0-0.775-0.047-1.125-0.143c-0.352-0.094-0.651-0.219-0.898-0.375
				c-0.246-0.154-0.457-0.314-0.631-0.479s-0.404-0.412-0.689-0.742v0.258c0,0.486-0.117,0.855-0.352,1.107
				c-0.233,0.25-0.531,0.373-0.893,0.373c-0.367,0-0.66-0.123-0.878-0.373c-0.219-0.252-0.328-0.621-0.328-1.107v-11.322
				c0-0.525,0.106-0.924,0.317-1.191c0.212-0.27,0.509-0.404,0.889-0.404c0.399,0,0.706,0.129,0.921,0.385
				C-210.531,367.23-210.423,367.594-210.423,368.07z M-210.299,375.773c0,1.031,0.236,1.824,0.708,2.377
				c0.472,0.555,1.091,0.834,1.857,0.834c0.652,0,1.214-0.283,1.686-0.852c0.472-0.566,0.708-1.379,0.708-2.436
				c0-0.684-0.097-1.273-0.294-1.768s-0.475-0.875-0.835-1.145c-0.361-0.268-0.783-0.402-1.264-0.402
				c-0.494,0-0.935,0.135-1.32,0.402c-0.386,0.27-0.69,0.658-0.912,1.168C-210.188,374.463-210.299,375.07-210.299,375.773z"/>
			<path fill="#4B4B4B" d="M-199.377,381.311l0.237-0.58l-3.191-8.035c-0.196-0.461-0.295-0.799-0.295-1.008
				c0-0.221,0.058-0.426,0.171-0.615c0.114-0.191,0.271-0.344,0.47-0.457c0.2-0.115,0.407-0.172,0.623-0.172
				c0.373,0,0.655,0.119,0.846,0.357c0.19,0.236,0.357,0.576,0.503,1.02l2.194,6.383l2.08-5.936c0.164-0.48,0.313-0.857,0.446-1.131
				c0.133-0.271,0.273-0.455,0.422-0.549c0.148-0.096,0.359-0.145,0.632-0.145c0.197,0,0.385,0.053,0.565,0.158
				c0.18,0.104,0.319,0.244,0.417,0.422c0.098,0.178,0.148,0.363,0.148,0.561c-0.026,0.119-0.066,0.291-0.124,0.514
				c-0.058,0.221-0.126,0.447-0.208,0.674l-3.381,8.852c-0.292,0.779-0.577,1.389-0.855,1.832s-0.647,0.785-1.106,1.021
				c-0.459,0.238-1.078,0.357-1.857,0.357c-0.759,0-1.33-0.082-1.708-0.246c-0.381-0.166-0.57-0.467-0.57-0.904
				c0-0.297,0.089-0.527,0.271-0.688c0.18-0.162,0.448-0.244,0.801-0.244c0.14,0,0.276,0.02,0.409,0.059
				c0.165,0.037,0.307,0.057,0.427,0.057c0.297,0,0.532-0.043,0.704-0.133c0.17-0.088,0.324-0.242,0.46-0.461
				C-199.711,382.057-199.554,381.734-199.377,381.311z"/>
		</g>
		<g>
			<path fill="#4B4B4B" d="M-161.814,370.668h0.619v-0.777c0-0.814,0.1-1.457,0.307-1.938c0.203-0.479,0.555-0.826,1.047-1.045
				c0.49-0.217,1.162-0.326,2.016-0.326c1.52,0,2.273,0.367,2.273,1.113c0,0.238-0.08,0.445-0.24,0.615
				c-0.154,0.17-0.344,0.256-0.559,0.256c-0.1,0-0.277-0.018-0.527-0.059c-0.236-0.033-0.451-0.057-0.623-0.057
				c-0.467,0-0.766,0.141-0.904,0.416c-0.127,0.275-0.195,0.668-0.195,1.184v0.617h0.633c0.99,0,1.48,0.297,1.48,0.896
				c0,0.418-0.127,0.689-0.393,0.805c-0.262,0.113-0.623,0.17-1.088,0.17h-0.633v6.871c0,0.512-0.121,0.9-0.369,1.168
				c-0.242,0.273-0.555,0.406-0.943,0.406c-0.367,0-0.67-0.133-0.918-0.406c-0.244-0.268-0.363-0.656-0.363-1.168v-6.871h-0.715
				c-0.389,0-0.682-0.084-0.893-0.262c-0.209-0.17-0.314-0.398-0.314-0.678C-163.117,370.977-162.684,370.668-161.814,370.668"/>
			<path fill="#4B4B4B" d="M-153.324,377.242v2.168c0,0.523-0.133,0.92-0.375,1.18c-0.246,0.266-0.559,0.395-0.938,0.395
				c-0.381,0-0.688-0.131-0.926-0.4c-0.236-0.264-0.361-0.656-0.361-1.174v-7.223c0-1.166,0.42-1.748,1.262-1.748
				c0.434,0,0.742,0.135,0.934,0.408c0.189,0.273,0.295,0.674,0.316,1.207c0.309-0.533,0.625-0.934,0.949-1.207
				c0.332-0.273,0.762-0.408,1.309-0.408c0.549,0,1.072,0.135,1.586,0.408c0.516,0.273,0.771,0.637,0.771,1.084
				c0,0.314-0.111,0.58-0.326,0.781c-0.221,0.209-0.455,0.313-0.707,0.313c-0.1,0-0.33-0.063-0.691-0.18
				c-0.365-0.113-0.689-0.174-0.963-0.174c-0.381,0-0.693,0.104-0.932,0.299c-0.242,0.205-0.432,0.496-0.564,0.887
				c-0.129,0.395-0.219,0.865-0.273,1.404C-153.303,375.803-153.324,376.465-153.324,377.242"/>
			<path fill="#4B4B4B" d="M-141.404,376.35h-5.074c0.01,0.588,0.125,1.111,0.355,1.559c0.234,0.447,0.539,0.787,0.924,1.018
				c0.385,0.227,0.805,0.34,1.27,0.34c0.311,0,0.592-0.033,0.85-0.111c0.254-0.07,0.504-0.186,0.744-0.342
				c0.242-0.152,0.461-0.318,0.664-0.5c0.203-0.174,0.467-0.416,0.791-0.719c0.135-0.113,0.324-0.174,0.568-0.174
				c0.268,0,0.48,0.074,0.648,0.223c0.166,0.146,0.244,0.35,0.244,0.617c0,0.234-0.09,0.508-0.268,0.818
				c-0.188,0.318-0.463,0.617-0.836,0.906c-0.375,0.285-0.84,0.527-1.398,0.715c-0.559,0.189-1.205,0.285-1.932,0.285
				c-1.67,0-2.963-0.473-3.887-1.422c-0.924-0.951-1.391-2.242-1.391-3.867c0-0.768,0.117-1.479,0.348-2.135
				c0.225-0.658,0.557-1.217,0.998-1.688c0.436-0.471,0.971-0.828,1.613-1.078c0.637-0.25,1.346-0.375,2.127-0.375
				c1.012,0,1.881,0.215,2.607,0.646c0.723,0.422,1.273,0.977,1.629,1.654c0.361,0.68,0.541,1.367,0.541,2.074
				c0,0.648-0.188,1.07-0.561,1.266C-140.201,376.254-140.727,376.35-141.404,376.35 M-146.479,374.875h4.701
				c-0.063-0.885-0.297-1.549-0.713-1.986c-0.418-0.441-0.959-0.66-1.641-0.66c-0.646,0-1.178,0.221-1.592,0.67
				C-146.137,373.344-146.391,374.002-146.479,374.875"/>
			<path fill="#4B4B4B" d="M-130.617,376.35h-5.072c0.006,0.588,0.125,1.111,0.354,1.559c0.232,0.447,0.539,0.787,0.922,1.018
				c0.383,0.227,0.805,0.34,1.271,0.34c0.307,0,0.592-0.033,0.844-0.111c0.26-0.07,0.506-0.186,0.75-0.342
				c0.242-0.152,0.461-0.318,0.664-0.5c0.199-0.174,0.465-0.416,0.789-0.719c0.135-0.113,0.326-0.174,0.568-0.174
				c0.268,0,0.482,0.074,0.65,0.223c0.164,0.146,0.24,0.35,0.24,0.617c0,0.234-0.088,0.508-0.273,0.818
				c-0.178,0.318-0.455,0.617-0.83,0.906c-0.371,0.285-0.84,0.527-1.396,0.715c-0.557,0.189-1.207,0.285-1.934,0.285
				c-1.668,0-2.959-0.473-3.887-1.422c-0.924-0.951-1.389-2.242-1.389-3.867c0-0.768,0.115-1.479,0.348-2.135
				c0.227-0.658,0.559-1.217,0.996-1.688c0.436-0.471,0.973-0.828,1.613-1.078c0.639-0.25,1.352-0.375,2.129-0.375
				c1.01,0,1.879,0.215,2.613,0.646c0.721,0.422,1.266,0.977,1.621,1.654c0.359,0.68,0.545,1.367,0.545,2.074
				c0,0.648-0.191,1.07-0.561,1.266C-129.416,376.254-129.941,376.35-130.617,376.35 M-135.689,374.875h4.701
				c-0.064-0.885-0.305-1.549-0.715-1.986c-0.422-0.441-0.963-0.66-1.643-0.66c-0.646,0-1.176,0.221-1.594,0.67
				C-135.352,373.344-135.605,374.002-135.689,374.875"/>
			<path fill="#4B4B4B" d="M-124.938,371.898v0.311c0.486-0.602,0.994-1.043,1.525-1.324c0.518-0.285,1.117-0.428,1.781-0.428
				c0.795,0,1.535,0.209,2.207,0.617c0.672,0.414,1.199,1.016,1.59,1.807c0.389,0.795,0.586,1.73,0.586,2.814
				c0,0.795-0.113,1.531-0.336,2.201c-0.225,0.668-0.537,1.227-0.93,1.68c-0.393,0.449-0.855,0.801-1.389,1.045
				c-0.543,0.242-1.111,0.363-1.729,0.363c-0.738,0-1.363-0.148-1.865-0.447c-0.502-0.291-0.982-0.732-1.441-1.305v3.893
				c0,1.135-0.416,1.709-1.244,1.709c-0.49,0-0.809-0.146-0.971-0.439c-0.152-0.299-0.234-0.723-0.234-1.291V371.91
				c0-0.494,0.107-0.859,0.32-1.107c0.215-0.238,0.512-0.363,0.885-0.363c0.369,0,0.666,0.125,0.896,0.373
				C-125.051,371.066-124.938,371.424-124.938,371.898 M-119.854,375.666c0-0.686-0.105-1.273-0.314-1.764
				c-0.209-0.492-0.498-0.867-0.865-1.127c-0.367-0.264-0.783-0.396-1.232-0.396c-0.715,0-1.318,0.283-1.809,0.844
				c-0.492,0.566-0.74,1.395-0.74,2.492c0,1.027,0.244,1.834,0.736,2.406c0.486,0.574,1.086,0.859,1.813,0.859
				c0.428,0,0.83-0.127,1.197-0.373c0.371-0.252,0.664-0.627,0.883-1.127C-119.965,376.979-119.854,376.373-119.854,375.666"/>
			<path fill="#4B4B4B" d="M-114.637,369.232c-0.363,0-0.67-0.115-0.924-0.336c-0.26-0.223-0.387-0.531-0.387-0.936
				c0-0.369,0.131-0.67,0.396-0.91c0.262-0.234,0.566-0.355,0.914-0.355c0.34,0,0.635,0.105,0.893,0.318
				c0.26,0.219,0.391,0.535,0.391,0.947c0,0.398-0.127,0.711-0.377,0.936C-113.984,369.117-114.285,369.232-114.637,369.232
				 M-113.354,371.91v7.502c0,0.516-0.123,0.908-0.369,1.172c-0.25,0.27-0.561,0.4-0.941,0.4s-0.686-0.133-0.928-0.406
				c-0.234-0.275-0.355-0.664-0.355-1.166v-7.428c0-0.51,0.121-0.895,0.355-1.154c0.242-0.264,0.547-0.391,0.928-0.391
				s0.691,0.127,0.941,0.391C-113.477,371.09-113.354,371.453-113.354,371.91"/>
			<path fill="#4B4B4B" d="M-104.994,379.801l-2.283-3.766l-1.408,1.328v2.066c0,0.498-0.133,0.881-0.396,1.148
				c-0.258,0.273-0.566,0.406-0.906,0.406c-0.398,0-0.715-0.131-0.941-0.4c-0.227-0.264-0.344-0.656-0.344-1.174v-11.063
				c0-0.574,0.115-1.012,0.332-1.314c0.223-0.305,0.545-0.451,0.953-0.451c0.398,0,0.713,0.137,0.949,0.41
				c0.234,0.271,0.354,0.674,0.354,1.203v6.293l2.916-3.063c0.361-0.377,0.633-0.641,0.826-0.779
				c0.189-0.139,0.42-0.207,0.689-0.207c0.326,0,0.594,0.104,0.816,0.309c0.211,0.205,0.32,0.465,0.32,0.773
				c0,0.379-0.354,0.889-1.055,1.521l-1.377,1.262l2.658,4.184c0.193,0.313,0.34,0.543,0.424,0.705
				c0.084,0.16,0.131,0.32,0.131,0.463c0,0.412-0.115,0.734-0.342,0.975c-0.225,0.236-0.523,0.354-0.885,0.354
				c-0.316,0-0.564-0.08-0.734-0.256C-104.467,380.557-104.703,380.246-104.994,379.801"/>
			<path fill="#4B4B4B" d="M-99.357,380.984c-0.393,0-0.729-0.125-1.014-0.381c-0.285-0.248-0.43-0.605-0.43-1.064
				c0-0.385,0.139-0.719,0.41-0.994c0.275-0.279,0.607-0.42,1.008-0.42c0.398,0,0.736,0.141,1.023,0.412
				c0.279,0.275,0.422,0.613,0.422,1.002c0,0.453-0.143,0.809-0.422,1.061C-98.646,380.859-98.979,380.984-99.357,380.984"/>
			<path fill="#4B4B4B" d="M-86.459,377.775c0,0.32-0.098,0.668-0.291,1.033c-0.191,0.371-0.488,0.719-0.887,1.051
				c-0.395,0.332-0.891,0.602-1.494,0.803c-0.602,0.203-1.281,0.307-2.031,0.307c-1.605,0-2.857-0.469-3.758-1.4
				c-0.895-0.936-1.346-2.189-1.346-3.76c0-1.068,0.205-2.006,0.619-2.824c0.408-0.814,1.004-1.447,1.781-1.895
				c0.779-0.447,1.717-0.67,2.795-0.67c0.674,0,1.287,0.098,1.852,0.295c0.561,0.195,1.033,0.451,1.426,0.76
				c0.387,0.314,0.686,0.643,0.889,0.992c0.207,0.352,0.309,0.68,0.309,0.986c0,0.309-0.113,0.572-0.344,0.787
				c-0.234,0.215-0.516,0.324-0.838,0.324c-0.219,0-0.398-0.057-0.541-0.166c-0.145-0.111-0.305-0.289-0.479-0.541
				c-0.318-0.479-0.646-0.842-0.996-1.08c-0.344-0.242-0.781-0.361-1.314-0.361c-0.762,0-1.383,0.297-1.854,0.896
				c-0.467,0.596-0.703,1.42-0.703,2.455c0,0.488,0.063,0.939,0.184,1.348c0.117,0.406,0.291,0.756,0.52,1.043
				c0.23,0.287,0.504,0.506,0.826,0.654c0.324,0.154,0.682,0.227,1.064,0.227c0.521,0,0.967-0.121,1.336-0.361
				c0.377-0.24,0.703-0.607,0.986-1.102c0.158-0.291,0.328-0.518,0.51-0.684c0.182-0.164,0.408-0.25,0.676-0.25
				c0.316,0,0.58,0.123,0.785,0.363C-86.566,377.246-86.459,377.504-86.459,377.775"/>
			<path fill="#4B4B4B" d="M-75.27,375.715c0,0.77-0.121,1.484-0.355,2.139c-0.246,0.652-0.592,1.213-1.049,1.678
				c-0.455,0.469-1.002,0.828-1.633,1.08c-0.639,0.248-1.35,0.375-2.139,0.375c-0.785,0-1.492-0.127-2.121-0.383
				c-0.623-0.248-1.17-0.613-1.625-1.082c-0.461-0.477-0.809-1.033-1.053-1.676c-0.229-0.645-0.35-1.355-0.35-2.131
				c0-0.787,0.123-1.506,0.357-2.158c0.242-0.654,0.59-1.213,1.039-1.674c0.451-0.461,0.994-0.816,1.631-1.07
				c0.645-0.248,1.35-0.373,2.121-0.373c0.785,0,1.498,0.125,2.139,0.381c0.639,0.252,1.184,0.615,1.645,1.08
				c0.457,0.475,0.803,1.029,1.039,1.672C-75.389,374.223-75.27,374.932-75.27,375.715 M-77.873,375.715
				c0-1.059-0.234-1.881-0.697-2.469c-0.463-0.596-1.09-0.889-1.875-0.889c-0.508,0-0.955,0.133-1.342,0.395
				s-0.682,0.648-0.891,1.164c-0.209,0.514-0.314,1.113-0.314,1.799c0,0.678,0.102,1.268,0.309,1.773
				c0.209,0.51,0.502,0.896,0.887,1.166c0.385,0.266,0.834,0.404,1.352,0.404c0.785,0,1.412-0.297,1.875-0.893
				C-78.107,377.576-77.873,376.756-77.873,375.715"/>
			<path fill="#4B4B4B" d="M-65.377,375.904v3.447c0,0.547-0.121,0.951-0.369,1.227c-0.25,0.273-0.572,0.408-0.979,0.408
				c-0.393,0-0.713-0.135-0.951-0.408c-0.246-0.275-0.371-0.68-0.371-1.227v-4.131c0-0.654-0.021-1.162-0.064-1.525
				c-0.045-0.354-0.168-0.654-0.361-0.883c-0.197-0.234-0.51-0.352-0.932-0.352c-0.85,0-1.406,0.291-1.676,0.881
				c-0.268,0.576-0.406,1.414-0.406,2.508v3.502c0,0.537-0.123,0.945-0.361,1.223c-0.25,0.273-0.568,0.412-0.965,0.412
				s-0.717-0.139-0.967-0.412c-0.252-0.277-0.377-0.686-0.377-1.223v-7.42c0-0.488,0.111-0.859,0.336-1.111
				c0.229-0.256,0.525-0.381,0.889-0.381c0.357,0,0.652,0.123,0.893,0.355c0.236,0.238,0.354,0.566,0.354,0.984v0.244
				c0.453-0.535,0.936-0.932,1.445-1.18c0.516-0.26,1.082-0.387,1.713-0.387c0.65,0,1.211,0.131,1.678,0.391
				c0.469,0.26,0.854,0.654,1.16,1.176c0.439-0.527,0.908-0.922,1.41-1.18c0.5-0.258,1.053-0.387,1.662-0.387
				c0.705,0,1.32,0.143,1.834,0.42c0.51,0.277,0.893,0.68,1.146,1.195c0.221,0.473,0.33,1.209,0.33,2.217v5.063
				c0,0.547-0.121,0.951-0.367,1.227c-0.246,0.273-0.574,0.408-0.979,0.408c-0.395,0-0.715-0.139-0.965-0.412
				c-0.25-0.277-0.377-0.686-0.377-1.223v-4.361c0-0.559-0.023-1.004-0.068-1.338c-0.047-0.338-0.178-0.621-0.383-0.848
				c-0.213-0.227-0.531-0.344-0.953-0.344c-0.342,0-0.666,0.107-0.975,0.309c-0.307,0.197-0.547,0.477-0.721,0.813
				C-65.279,374.02-65.377,374.795-65.377,375.904"/>
		</g>
		<g>
			<path fill="#4B4B4B" d="M-186.082,375.086c-0.002-0.004-0.002-0.01-0.002-0.018
				C-186.084,375.076-186.084,375.082-186.082,375.086z"/>
			<path fill="#4B4B4B" d="M-185.951,375.916c0.002,0,0.002,0,0.003,0c-0.05-0.236-0.088-0.471-0.119-0.703
				C-186.037,375.447-185.998,375.682-185.951,375.916z"/>
			<path fill="#4B4B4B" d="M-185.093,378.322c-0.006-0.01-0.011-0.021-0.017-0.033
				C-185.104,378.301-185.099,378.313-185.093,378.322z"/>
			<path fill="#4B4B4B" d="M-185.175,378.162c-0.022-0.045-0.044-0.09-0.065-0.135
				C-185.219,378.074-185.197,378.117-185.175,378.162z"/>
			<path fill="#4B4B4B" d="M-185.71,376.842c0.127,0.4,0.28,0.789,0.457,1.158c-0.18-0.377-0.33-0.766-0.454-1.158
				C-185.708,376.842-185.709,376.842-185.71,376.842z"/>
			<path fill="#4B4B4B" d="M-176.044,365.15c0.5,0,0.871,0.039,1.294,0.111l0.121-0.764c0,0-1.171-0.359-2.711-0.234l-0.121-0.414
				c0.479-0.102,0.838-0.527,0.838-1.035c0-0.582-0.474-1.053-1.057-1.053c-0.583,0-1.056,0.471-1.056,1.053
				c0,0.508,0.358,0.934,0.836,1.035l0.134,0.463c-1.634,0.225-2.935,0.861-2.935,0.861l0.23,0.705
				c0.989-0.328,1.846-0.529,2.624-0.613C-177.085,365.186-176.512,365.15-176.044,365.15z"/>
			<path fill="#4B4B4B" d="M-185.112,369.008l0.006-0.008c0.039-0.049,0.076-0.096,0.113-0.143l-0.313-0.225l-0.488-0.357
				c-0.027,0.039-0.795,0.744-1.401,2.049c-0.025-0.041-0.056-0.082-0.09-0.119c-0.182-0.199-0.436-0.301-0.758-0.295
				c-0.004,0-0.009,0-0.015,0c-0.2,0-0.337-0.066-0.427-0.146c0.089-0.113,0.143-0.256,0.143-0.414c0-0.367-0.3-0.668-0.669-0.668
				c-0.369,0-0.668,0.301-0.668,0.668c0,0.371,0.3,0.67,0.668,0.67c0.058,0,0.113-0.01,0.167-0.021
				c0.165,0.184,0.425,0.342,0.808,0.334c0.197-0.002,0.341,0.049,0.438,0.156c0.111,0.121,0.148,0.295,0.16,0.428
				c-0.001,0.002-0.001,0.004-0.003,0.004c-0.436,1.189-0.311,2.67-0.311,2.67l1.057,0.043c0.021-0.539,0.099-1.482,0.372-2.23
				C-185.798,369.953-185.139,369.047-185.112,369.008z"/>
			<path fill="#4B4B4B" d="M-166.846,366.033c-0.367,0-0.668,0.299-0.668,0.67c0,0.057,0.008,0.111,0.023,0.164
				c-0.184,0.166-0.344,0.428-0.338,0.811c0.004,0.197-0.047,0.34-0.154,0.438c-0.084,0.074-0.191,0.115-0.295,0.141
				c-0.787-1.104-1.756-1.775-1.756-1.775l-0.76,0.813c0.574,0.521,1.16,1.176,1.729,1.99c0.395,0.564,0.799,1.291,1.137,2.016
				l1.023-0.486c0,0-0.467-1.156-1.125-2.191c0.113-0.041,0.229-0.104,0.33-0.193c0.201-0.18,0.299-0.436,0.293-0.758
				c-0.002-0.207,0.066-0.348,0.148-0.441c0.115,0.088,0.258,0.143,0.412,0.143c0.371,0,0.67-0.299,0.67-0.668
				C-166.176,366.332-166.475,366.033-166.846,366.033z"/>
			<path fill="#4B4B4B" d="M-169.502,375.236c-1.41,0.686-3.729,1.594-6.782,2.02c-1.197,0.166-2.359,0.227-3.428,0.227
				c-1.391,0-2.62-0.104-3.563-0.223c-1.076-0.135-1.917-0.301-2.432-0.418c0.124,0.393,0.273,0.781,0.454,1.158
				c0.003,0.01,0.008,0.021,0.013,0.027c0.021,0.045,0.043,0.09,0.065,0.135c0.021,0.043,0.043,0.086,0.065,0.127
				c0.006,0.012,0.011,0.023,0.017,0.033c0.303,0.57,0.667,1.094,1.081,1.549c1.44,1.574,2.907,1.824,2.921,1.826l0.023,0.002
				l0.021,0.008c0.013,0.006,1.314,0.426,3.292,0.426c1.946,0,3.855-0.393,5.673-1.168c1.348-0.689,2.623-1.736,3.254-2.67
				c0.488-0.723,0.842-1.492,1.051-2.293c0.111-0.426,0.199-1.107,0.146-1.826C-168.027,374.443-168.654,374.822-169.502,375.236z"
				/>
			<path fill="#4B4B4B" d="M-184.66,369.342c-0.041,0.061-0.652,0.926-1.135,2.254c-0.362,0.994-0.346,2.443-0.346,2.459v0.004
				c0,0.34,0.019,0.676,0.057,1.01c0,0.008,0,0.014,0.002,0.018c0.004,0.043,0.011,0.084,0.015,0.127
				c0.03,0.232,0.069,0.467,0.119,0.703c0.7,0.178,4.878,1.152,9.549,0.502c2.927-0.408,5.149-1.273,6.499-1.928
				c1.121-0.543,1.842-1.035,2.119-1.238c-0.277-1.027-1.041-2.641-1.742-3.646c-2.006-2.865-4.168-3.6-5.277-3.783
				c-0.425-0.068-0.763-0.109-1.243-0.109c-0.447,0-1.002,0.037-1.744,0.115c-0.743,0.076-1.572,0.271-2.532,0.596
				c-1.348,0.451-2.567,1.158-3.527,2.047l-0.033,0.031C-184.021,368.633-184.318,368.908-184.66,369.342z M-172.391,368.676
				c0.961,0,1.744,0.781,1.744,1.742c0,0.963-0.783,1.744-1.744,1.744s-1.742-0.781-1.742-1.744
				C-174.133,369.457-173.352,368.676-172.391,368.676z M-180.632,368.605c1.557,0,2.817,1.262,2.817,2.818
				c0,1.555-1.26,2.814-2.817,2.814c-1.555,0-2.816-1.26-2.816-2.814C-183.448,369.867-182.187,368.605-180.632,368.605z"/>
		</g>
	</g>
</g>
<g id="Objects">
	<g display="none">
		<g display="inline">
			<g>
				<g opacity="0.2">
					<circle cx="-453.844" cy="-272.958" r="81.276"/>
				</g>
				<g>
					<circle fill="#348EA9" cx="-453.844" cy="-276.565" r="81.276"/>
				</g>
			</g>
			<path opacity="0.3" fill="#348EA9" d="M-388.945-232.228c-17.155,17.154-40.702,32.42-64.976,32.42
				c-24.273,0-47.82-15.266-64.975-32.42c-3.123-3.123-5.997-6.459-8.615-9.971c12.949,27.708,41.063,46.909,73.667,46.909
				c32.825,0,61.101-19.46,73.93-47.471C-382.643-239.042-385.657-235.517-388.945-232.228z"/>
			<circle fill="#F2F2F2" cx="-453.844" cy="-276.565" r="67.818"/>
			<path fill="#F2F2F2" d="M-507.98-315.19c14.177-14.178,33.638-22.243,53.699-22.243c20.061,0,39.521,8.065,53.699,22.243
				c2.907,2.907,5.552,6.039,7.928,9.35c-10.927-22.798-34.219-38.542-61.189-38.542c-25.538,0-47.774,14.118-59.342,34.972
				C-511.556-311.419-509.82-313.35-507.98-315.19z"/>
			<g>
				<text transform="matrix(1 0 0 1 -463.8804 -322.1357)" fill="#4D4D4D" font-family="'Exo-Bold'" font-size="19.5672">12</text>
			</g>
			<g>
				<text transform="matrix(1 0 0 1 -458.8613 -216.4165)" fill="#4D4D4D" font-family="'Exo-Bold'" font-size="19.5672">6</text>
			</g>
			<g>
				<text transform="matrix(1 0 0 1 -406.002 -269.2764)" fill="#4D4D4D" font-family="'Exo-Bold'" font-size="19.5672">3</text>
			</g>
			<g>
				<text transform="matrix(1 0 0 1 -511.7207 -269.2759)" fill="#4D4D4D" font-family="'Exo-Bold'" font-size="19.5672">9</text>
			</g>
			<g>
				<text transform="matrix(1 0 0 1 -411.7964 -296.1924)" fill="#4D4D4D" font-family="'Exo-Bold'" font-size="19.5672">2</text>
			</g>
			<g>
				<text transform="matrix(1 0 0 1 -510.7583 -296.1914)" fill="#4D4D4D" font-family="'Exo-Bold'" font-size="19.5672">10</text>
			</g>
			<g>
				<text transform="matrix(1 0 0 1 -430.915 -314.8843)" fill="#4D4D4D" font-family="'Exo-Bold'" font-size="19.5672">1</text>
			</g>
			<g>
				<text transform="matrix(1 0 0 1 -491.6396 -314.8828)" fill="#4D4D4D" font-family="'Exo-Bold'" font-size="19.5672">11</text>
			</g>
			<g>
				<text transform="matrix(1 0 0 1 -430.915 -222.9219)" fill="#4D4D4D" font-family="'Exo-Bold'" font-size="19.5672">5</text>
			</g>
			<g>
				<text transform="matrix(1 0 0 1 -486.6211 -222.9209)" fill="#4D4D4D" font-family="'Exo-Bold'" font-size="19.5672">7</text>
			</g>
			<g>
				<text transform="matrix(1 0 0 1 -411.7964 -242.9214)" fill="#4D4D4D" font-family="'Exo-Bold'" font-size="19.5672">4</text>
			</g>
			<g>
				<text transform="matrix(1 0 0 1 -505.7397 -242.9204)" fill="#4D4D4D" font-family="'Exo-Bold'" font-size="19.5672">8</text>
			</g>
			<polygon fill="#348EA9" points="-453.843,-328.099 -457.389,-323.076 -456.625,-276.565 -451.062,-276.565 -450.298,-323.076 			
				"/>
			<polygon fill="#348EA9" points="-453.843,-309.781 -457.389,-304.759 -456.625,-276.565 -451.062,-276.565 -450.298,-304.759 			
				"/>
			<circle fill="#4D4D4D" cx="-453.844" cy="-276.565" r="5.488"/>
		</g>
		<g display="inline">
			<g>
				<g opacity="0.2">
					<circle cx="-453.844" cy="-94.037" r="81.276"/>
				</g>
				<g>
					<circle fill="#F04946" cx="-453.844" cy="-97.645" r="81.276"/>
				</g>
			</g>
			<path opacity="0.3" fill="#F04946" d="M-388.945-53.308c-17.155,17.155-40.702,32.421-64.976,32.421
				c-24.273,0-47.82-15.266-64.975-32.421c-3.123-3.123-5.997-6.459-8.615-9.971c12.949,27.708,41.063,46.909,73.667,46.909
				c32.825,0,61.101-19.46,73.93-47.471C-382.643-60.122-385.657-56.596-388.945-53.308z"/>
			<circle fill="#F2F2F2" cx="-453.844" cy="-97.645" r="67.818"/>
			<path fill="#F2F2F2" d="M-507.98-136.27c14.177-14.177,33.638-22.243,53.699-22.243c20.061,0,39.521,8.065,53.699,22.243
				c2.907,2.907,5.552,6.039,7.928,9.35c-10.927-22.798-34.219-38.542-61.189-38.542c-25.538,0-47.774,14.118-59.342,34.972
				C-511.556-132.498-509.82-134.429-507.98-136.27z"/>
			<g>
				<text transform="matrix(1 0 0 1 -463.8804 -143.2153)" fill="#4D4D4D" font-family="'Exo-Bold'" font-size="19.5672">12</text>
			</g>
			<g>
				<text transform="matrix(1 0 0 1 -458.8613 -37.4961)" fill="#4D4D4D" font-family="'Exo-Bold'" font-size="19.5672">6</text>
			</g>
			<g>
				<text transform="matrix(1 0 0 1 -406.002 -90.356)" fill="#4D4D4D" font-family="'Exo-Bold'" font-size="19.5672">3</text>
			</g>
			<g>
				<text transform="matrix(1 0 0 1 -511.7207 -90.355)" fill="#4D4D4D" font-family="'Exo-Bold'" font-size="19.5672">9</text>
			</g>
			<g>
				<text transform="matrix(1 0 0 1 -411.7964 -117.2715)" fill="#4D4D4D" font-family="'Exo-Bold'" font-size="19.5672">2</text>
			</g>
			<g>
				<text transform="matrix(1 0 0 1 -510.7583 -117.271)" fill="#4D4D4D" font-family="'Exo-Bold'" font-size="19.5672">10</text>
			</g>
			<g>
				<text transform="matrix(1 0 0 1 -430.915 -135.9629)" fill="#4D4D4D" font-family="'Exo-Bold'" font-size="19.5672">1</text>
			</g>
			<g>
				<text transform="matrix(1 0 0 1 -491.6396 -135.9624)" fill="#4D4D4D" font-family="'Exo-Bold'" font-size="19.5672">11</text>
			</g>
			<g>
				<text transform="matrix(1 0 0 1 -430.915 -44.001)" fill="#4D4D4D" font-family="'Exo-Bold'" font-size="19.5672">5</text>
			</g>
			<g>
				<text transform="matrix(1 0 0 1 -486.6211 -44.0005)" fill="#4D4D4D" font-family="'Exo-Bold'" font-size="19.5672">7</text>
			</g>
			<g>
				<text transform="matrix(1 0 0 1 -411.7964 -64.0005)" fill="#4D4D4D" font-family="'Exo-Bold'" font-size="19.5672">4</text>
			</g>
			<g>
				<text transform="matrix(1 0 0 1 -505.7397 -64)" fill="#4D4D4D" font-family="'Exo-Bold'" font-size="19.5672">8</text>
			</g>
			<polygon fill="#F04946" points="-453.843,-149.178 -457.389,-144.155 -456.625,-97.644 -451.062,-97.644 -450.298,-144.155 			
				"/>
			<polygon fill="#F04946" points="-420.627,-97.644 -425.65,-101.19 -453.844,-100.426 -453.844,-94.863 -425.65,-94.099 			"/>
			<circle fill="#4D4D4D" cx="-453.844" cy="-97.645" r="5.488"/>
		</g>
		<g display="inline">
			<g>
				<g opacity="0.2">
					<circle cx="-453.844" cy="84.884" r="81.276"/>
				</g>
				<g>
					<circle fill="#53BB9B" cx="-453.844" cy="81.276" r="81.276"/>
				</g>
			</g>
			<path opacity="0.3" fill="#53BB9B" d="M-388.945,125.613c-17.155,17.154-40.702,32.421-64.976,32.421
				c-24.273,0-47.82-15.267-64.975-32.421c-3.123-3.123-5.997-6.459-8.615-9.971c12.949,27.708,41.063,46.909,73.667,46.909
				c32.825,0,61.101-19.46,73.93-47.472C-382.643,118.799-385.657,122.324-388.945,125.613z"/>
			<circle fill="#F2F2F2" cx="-453.844" cy="81.276" r="67.818"/>
			<path fill="#F2F2F2" d="M-507.98,42.65c14.177-14.177,33.638-22.242,53.699-22.242c20.061,0,39.521,8.065,53.699,22.242
				c2.907,2.907,5.552,6.039,7.928,9.351c-10.927-22.798-34.219-38.543-61.189-38.543c-25.538,0-47.774,14.118-59.342,34.973
				C-511.556,46.423-509.82,44.491-507.98,42.65z"/>
			<g>
				<text transform="matrix(1 0 0 1 -463.8804 35.7061)" fill="#4D4D4D" font-family="'Exo-Bold'" font-size="19.5672">12</text>
			</g>
			<g>
				<text transform="matrix(1 0 0 1 -458.8613 141.4248)" fill="#4D4D4D" font-family="'Exo-Bold'" font-size="19.5672">6</text>
			</g>
			<g>
				<text transform="matrix(1 0 0 1 -406.002 88.5654)" fill="#4D4D4D" font-family="'Exo-Bold'" font-size="19.5672">3</text>
			</g>
			<g>
				<text transform="matrix(1 0 0 1 -511.7207 88.5654)" fill="#4D4D4D" font-family="'Exo-Bold'" font-size="19.5672">9</text>
			</g>
			<g>
				<text transform="matrix(1 0 0 1 -411.7964 61.6494)" fill="#4D4D4D" font-family="'Exo-Bold'" font-size="19.5672">2</text>
			</g>
			<g>
				<text transform="matrix(1 0 0 1 -510.7583 61.6494)" fill="#4D4D4D" font-family="'Exo-Bold'" font-size="19.5672">10</text>
			</g>
			<g>
				<text transform="matrix(1 0 0 1 -430.915 42.958)" fill="#4D4D4D" font-family="'Exo-Bold'" font-size="19.5672">1</text>
			</g>
			<g>
				<text transform="matrix(1 0 0 1 -491.6396 42.958)" fill="#4D4D4D" font-family="'Exo-Bold'" font-size="19.5672">11</text>
			</g>
			<g>
				<text transform="matrix(1 0 0 1 -430.915 134.9189)" fill="#4D4D4D" font-family="'Exo-Bold'" font-size="19.5672">5</text>
			</g>
			<g>
				<text transform="matrix(1 0 0 1 -486.6211 134.9209)" fill="#4D4D4D" font-family="'Exo-Bold'" font-size="19.5672">7</text>
			</g>
			<g>
				<text transform="matrix(1 0 0 1 -411.7964 114.9199)" fill="#4D4D4D" font-family="'Exo-Bold'" font-size="19.5672">4</text>
			</g>
			<g>
				<text transform="matrix(1 0 0 1 -505.7397 114.9209)" fill="#4D4D4D" font-family="'Exo-Bold'" font-size="19.5672">8</text>
			</g>
			<polygon fill="#53BB9B" points="-453.843,29.742 -457.389,34.766 -456.625,81.276 -451.062,81.276 -450.298,34.766 			"/>
			<polygon fill="#53BB9B" points="-453.844,114.492 -450.298,109.47 -451.063,81.275 -456.625,81.275 -457.389,109.47 			"/>
			<circle fill="#4D4D4D" cx="-453.844" cy="81.276" r="5.488"/>
		</g>
		<g display="inline">
			<g>
				<g opacity="0.2">
					<circle cx="-453.844" cy="263.804" r="81.276"/>
				</g>
				<g>
					<circle fill="#8562A3" cx="-453.844" cy="260.196" r="81.276"/>
				</g>
			</g>
			<path opacity="0.3" fill="#8562A3" d="M-388.945,304.534c-17.155,17.154-40.702,32.42-64.976,32.42
				c-24.273,0-47.82-15.266-64.975-32.42c-3.123-3.123-5.997-6.459-8.615-9.972c12.949,27.709,41.063,46.91,73.667,46.91
				c32.825,0,61.101-19.461,73.93-47.472C-382.643,297.72-385.657,301.245-388.945,304.534z"/>
			<circle fill="#F2F2F2" cx="-453.844" cy="260.196" r="67.818"/>
			<path fill="#F2F2F2" d="M-507.98,221.571c14.177-14.178,33.638-22.243,53.699-22.243c20.061,0,39.521,8.065,53.699,22.243
				c2.907,2.907,5.552,6.039,7.928,9.35c-10.927-22.798-34.219-38.542-61.189-38.542c-25.538,0-47.774,14.118-59.342,34.973
				C-511.556,225.343-509.82,223.412-507.98,221.571z"/>
			<g>
				<text transform="matrix(1 0 0 1 -463.8804 214.626)" fill="#4D4D4D" font-family="'Exo-Bold'" font-size="19.5672">12</text>
			</g>
			<g>
				<text transform="matrix(1 0 0 1 -458.8613 320.3447)" fill="#4D4D4D" font-family="'Exo-Bold'" font-size="19.5672">6</text>
			</g>
			<g>
				<text transform="matrix(1 0 0 1 -406.002 267.4854)" fill="#4D4D4D" font-family="'Exo-Bold'" font-size="19.5672">3</text>
			</g>
			<g>
				<text transform="matrix(1 0 0 1 -511.7207 267.4854)" fill="#4D4D4D" font-family="'Exo-Bold'" font-size="19.5672">9</text>
			</g>
			<g>
				<text transform="matrix(1 0 0 1 -411.7964 240.5693)" fill="#4D4D4D" font-family="'Exo-Bold'" font-size="19.5672">2</text>
			</g>
			<g>
				<text transform="matrix(1 0 0 1 -510.7583 240.5713)" fill="#4D4D4D" font-family="'Exo-Bold'" font-size="19.5672">10</text>
			</g>
			<g>
				<text transform="matrix(1 0 0 1 -430.915 221.8779)" fill="#4D4D4D" font-family="'Exo-Bold'" font-size="19.5672">1</text>
			</g>
			<g>
				<text transform="matrix(1 0 0 1 -491.6396 221.8789)" fill="#4D4D4D" font-family="'Exo-Bold'" font-size="19.5672">11</text>
			</g>
			<g>
				<text transform="matrix(1 0 0 1 -430.915 313.8408)" fill="#4D4D4D" font-family="'Exo-Bold'" font-size="19.5672">5</text>
			</g>
			<g>
				<text transform="matrix(1 0 0 1 -486.6211 313.8408)" fill="#4D4D4D" font-family="'Exo-Bold'" font-size="19.5672">7</text>
			</g>
			<g>
				<text transform="matrix(1 0 0 1 -411.7964 293.8408)" fill="#4D4D4D" font-family="'Exo-Bold'" font-size="19.5672">4</text>
			</g>
			<g>
				<text transform="matrix(1 0 0 1 -505.7397 293.8408)" fill="#4D4D4D" font-family="'Exo-Bold'" font-size="19.5672">8</text>
			</g>
			<polygon fill="#8562A3" points="-453.843,208.663 -457.389,213.686 -456.625,260.197 -451.062,260.197 -450.298,213.686 			"/>
			<polygon fill="#8562A3" points="-487.06,260.196 -482.037,263.742 -453.843,262.978 -453.843,257.415 -482.037,256.651 			"/>
			<circle fill="#4D4D4D" cx="-453.844" cy="260.196" r="5.488"/>
		</g>
	</g>
	<g display="none">
		<g display="inline">
			<g>
				<g opacity="0.2">
					<circle cx="-186.284" cy="-272.958" r="81.275"/>
				</g>
				<g>
					<circle fill="#53BB9B" cx="-186.284" cy="-276.565" r="81.275"/>
				</g>
			</g>
			<path opacity="0.3" fill="#53BB9B" d="M-121.386-232.228c-17.155,17.154-40.702,32.42-64.976,32.42s-47.821-15.266-64.976-32.42
				c-3.122-3.123-5.997-6.459-8.615-9.971c12.949,27.708,41.063,46.909,73.667,46.909c32.824,0,61.1-19.46,73.929-47.471
				C-115.084-239.042-118.098-235.517-121.386-232.228z"/>
			<circle fill="#F2F2F2" cx="-186.284" cy="-276.565" r="67.818"/>
			<path fill="#F2F2F2" d="M-240.421-315.19c14.178-14.178,33.638-22.243,53.699-22.243c20.06,0,39.521,8.065,53.699,22.243
				c2.906,2.907,5.552,6.039,7.928,9.35c-10.927-22.798-34.219-38.542-61.188-38.542c-25.538,0-47.774,14.118-59.342,34.972
				C-243.996-311.419-242.261-313.35-240.421-315.19z"/>
			<g>
				<text transform="matrix(1 0 0 1 -196.3208 -322.1357)" fill="#4D4D4D" font-family="'Exo-Bold'" font-size="19.5672">12</text>
			</g>
			<g>
				<text transform="matrix(1 0 0 1 -191.3018 -216.4165)" fill="#4D4D4D" font-family="'Exo-Bold'" font-size="19.5672">6</text>
			</g>
			<g>
				<text transform="matrix(1 0 0 1 -138.4424 -269.2764)" fill="#4D4D4D" font-family="'Exo-Bold'" font-size="19.5672">3</text>
			</g>
			<g>
				<text transform="matrix(1 0 0 1 -244.1616 -269.2759)" fill="#4D4D4D" font-family="'Exo-Bold'" font-size="19.5672">9</text>
			</g>
			<g>
				<text transform="matrix(1 0 0 1 -144.2373 -296.1924)" fill="#4D4D4D" font-family="'Exo-Bold'" font-size="19.5672">2</text>
			</g>
			<g>
				<text transform="matrix(1 0 0 1 -243.1987 -296.1914)" fill="#4D4D4D" font-family="'Exo-Bold'" font-size="19.5672">10</text>
			</g>
			<g>
				<text transform="matrix(1 0 0 1 -163.3555 -314.8843)" fill="#4D4D4D" font-family="'Exo-Bold'" font-size="19.5672">1</text>
			</g>
			<g>
				<text transform="matrix(1 0 0 1 -224.0801 -314.8828)" fill="#4D4D4D" font-family="'Exo-Bold'" font-size="19.5672">11</text>
			</g>
			<g>
				<text transform="matrix(1 0 0 1 -163.3555 -222.9219)" fill="#4D4D4D" font-family="'Exo-Bold'" font-size="19.5672">5</text>
			</g>
			<g>
				<text transform="matrix(1 0 0 1 -219.0615 -222.9209)" fill="#4D4D4D" font-family="'Exo-Bold'" font-size="19.5672">7</text>
			</g>
			<g>
				<text transform="matrix(1 0 0 1 -144.2373 -242.9214)" fill="#4D4D4D" font-family="'Exo-Bold'" font-size="19.5672">4</text>
			</g>
			<g>
				<text transform="matrix(1 0 0 1 -238.1802 -242.9204)" fill="#4D4D4D" font-family="'Exo-Bold'" font-size="19.5672">8</text>
			</g>
			<polygon fill="#53BB9B" points="-186.284,-328.099 -189.83,-323.076 -189.065,-276.565 -183.502,-276.565 -182.739,-323.076 			
				"/>
			<polygon fill="#53BB9B" points="-186.284,-309.781 -189.83,-304.759 -189.065,-276.565 -183.502,-276.565 -182.739,-304.759 			
				"/>
			<polygon fill="#53BB9B" points="-169.676,-305.331 -175.259,-302.754 -188.693,-277.956 -183.875,-275.174 -169.117,-299.208 			
				"/>
			<circle fill="#4D4D4D" cx="-186.284" cy="-276.565" r="5.488"/>
		</g>
		<g display="inline">
			<g>
				<g opacity="0.2">
					<circle cx="-186.284" cy="-94.037" r="81.275"/>
				</g>
				<g>
					<circle fill="#8562A3" cx="-186.284" cy="-97.645" r="81.275"/>
				</g>
			</g>
			<path opacity="0.3" fill="#8562A3" d="M-121.386-53.308c-17.155,17.155-40.702,32.421-64.976,32.421
				s-47.821-15.266-64.976-32.421c-3.122-3.123-5.997-6.459-8.615-9.971c12.949,27.708,41.063,46.909,73.667,46.909
				c32.824,0,61.1-19.46,73.929-47.471C-115.084-60.122-118.098-56.596-121.386-53.308z"/>
			<circle fill="#F2F2F2" cx="-186.284" cy="-97.645" r="67.818"/>
			<path fill="#F2F2F2" d="M-240.421-136.27c14.178-14.177,33.638-22.243,53.699-22.243c20.06,0,39.521,8.065,53.699,22.243
				c2.906,2.907,5.552,6.039,7.928,9.35c-10.927-22.798-34.219-38.542-61.188-38.542c-25.538,0-47.774,14.118-59.342,34.972
				C-243.996-132.498-242.261-134.429-240.421-136.27z"/>
			<g>
				<text transform="matrix(1 0 0 1 -196.3208 -143.2153)" fill="#4D4D4D" font-family="'Exo-Bold'" font-size="19.5672">12</text>
			</g>
			<g>
				<text transform="matrix(1 0 0 1 -191.3018 -37.4961)" fill="#4D4D4D" font-family="'Exo-Bold'" font-size="19.5672">6</text>
			</g>
			<g>
				<text transform="matrix(1 0 0 1 -138.4424 -90.356)" fill="#4D4D4D" font-family="'Exo-Bold'" font-size="19.5672">3</text>
			</g>
			<g>
				<text transform="matrix(1 0 0 1 -244.1616 -90.355)" fill="#4D4D4D" font-family="'Exo-Bold'" font-size="19.5672">9</text>
			</g>
			<g>
				<text transform="matrix(1 0 0 1 -144.2373 -117.2715)" fill="#4D4D4D" font-family="'Exo-Bold'" font-size="19.5672">2</text>
			</g>
			<g>
				<text transform="matrix(1 0 0 1 -243.1987 -117.271)" fill="#4D4D4D" font-family="'Exo-Bold'" font-size="19.5672">10</text>
			</g>
			<g>
				<text transform="matrix(1 0 0 1 -163.3555 -135.9629)" fill="#4D4D4D" font-family="'Exo-Bold'" font-size="19.5672">1</text>
			</g>
			<g>
				<text transform="matrix(1 0 0 1 -224.0801 -135.9624)" fill="#4D4D4D" font-family="'Exo-Bold'" font-size="19.5672">11</text>
			</g>
			<g>
				<text transform="matrix(1 0 0 1 -163.3555 -44.001)" fill="#4D4D4D" font-family="'Exo-Bold'" font-size="19.5672">5</text>
			</g>
			<g>
				<text transform="matrix(1 0 0 1 -219.0615 -44.0005)" fill="#4D4D4D" font-family="'Exo-Bold'" font-size="19.5672">7</text>
			</g>
			<g>
				<text transform="matrix(1 0 0 1 -144.2373 -64.0005)" fill="#4D4D4D" font-family="'Exo-Bold'" font-size="19.5672">4</text>
			</g>
			<g>
				<text transform="matrix(1 0 0 1 -238.1802 -64)" fill="#4D4D4D" font-family="'Exo-Bold'" font-size="19.5672">8</text>
			</g>
			<polygon fill="#8562A3" points="-186.284,-149.178 -189.83,-144.155 -189.065,-97.644 -183.502,-97.644 -182.739,-144.155 			"/>
			<polygon fill="#8562A3" points="-157.519,-81.036 -160.095,-86.618 -184.894,-100.053 -187.675,-95.236 -163.641,-80.477 			"/>
			<circle fill="#4D4D4D" cx="-186.284" cy="-97.645" r="5.488"/>
		</g>
		<g display="inline">
			<g>
				<g opacity="0.2">
					<circle cx="-186.284" cy="84.884" r="81.275"/>
				</g>
				<g>
					<circle fill="#F48C37" cx="-186.284" cy="81.276" r="81.275"/>
				</g>
			</g>
			<path opacity="0.3" fill="#F48C37" d="M-121.386,125.613c-17.155,17.154-40.702,32.421-64.976,32.421
				s-47.821-15.267-64.976-32.421c-3.122-3.123-5.997-6.459-8.615-9.971c12.949,27.708,41.063,46.909,73.667,46.909
				c32.824,0,61.1-19.46,73.929-47.472C-115.084,118.799-118.098,122.324-121.386,125.613z"/>
			<circle fill="#F2F2F2" cx="-186.284" cy="81.276" r="67.818"/>
			<path fill="#F2F2F2" d="M-240.421,42.65c14.178-14.177,33.638-22.242,53.699-22.242c20.06,0,39.521,8.065,53.699,22.242
				c2.906,2.907,5.552,6.039,7.928,9.351c-10.927-22.798-34.219-38.543-61.188-38.543c-25.538,0-47.774,14.118-59.342,34.973
				C-243.996,46.423-242.261,44.491-240.421,42.65z"/>
			<g>
				<text transform="matrix(1 0 0 1 -196.3208 35.7061)" fill="#4D4D4D" font-family="'Exo-Bold'" font-size="19.5672">12</text>
			</g>
			<g>
				<text transform="matrix(1 0 0 1 -191.3018 141.4248)" fill="#4D4D4D" font-family="'Exo-Bold'" font-size="19.5672">6</text>
			</g>
			<g>
				<text transform="matrix(1 0 0 1 -138.4424 88.5654)" fill="#4D4D4D" font-family="'Exo-Bold'" font-size="19.5672">3</text>
			</g>
			<g>
				<text transform="matrix(1 0 0 1 -244.1616 88.5654)" fill="#4D4D4D" font-family="'Exo-Bold'" font-size="19.5672">9</text>
			</g>
			<g>
				<text transform="matrix(1 0 0 1 -144.2373 61.6494)" fill="#4D4D4D" font-family="'Exo-Bold'" font-size="19.5672">2</text>
			</g>
			<g>
				<text transform="matrix(1 0 0 1 -243.1987 61.6494)" fill="#4D4D4D" font-family="'Exo-Bold'" font-size="19.5672">10</text>
			</g>
			<g>
				<text transform="matrix(1 0 0 1 -163.3555 42.958)" fill="#4D4D4D" font-family="'Exo-Bold'" font-size="19.5672">1</text>
			</g>
			<g>
				<text transform="matrix(1 0 0 1 -224.0801 42.958)" fill="#4D4D4D" font-family="'Exo-Bold'" font-size="19.5672">11</text>
			</g>
			<g>
				<text transform="matrix(1 0 0 1 -163.3555 134.9189)" fill="#4D4D4D" font-family="'Exo-Bold'" font-size="19.5672">5</text>
			</g>
			<g>
				<text transform="matrix(1 0 0 1 -219.0615 134.9209)" fill="#4D4D4D" font-family="'Exo-Bold'" font-size="19.5672">7</text>
			</g>
			<g>
				<text transform="matrix(1 0 0 1 -144.2373 114.9199)" fill="#4D4D4D" font-family="'Exo-Bold'" font-size="19.5672">4</text>
			</g>
			<g>
				<text transform="matrix(1 0 0 1 -238.1802 114.9209)" fill="#4D4D4D" font-family="'Exo-Bold'" font-size="19.5672">8</text>
			</g>
			<polygon fill="#F48C37" points="-186.284,29.742 -189.83,34.766 -189.065,81.276 -183.502,81.276 -182.739,34.766 			"/>
			<polygon fill="#F48C37" points="-202.893,110.042 -197.31,107.465 -183.875,82.666 -188.693,79.885 -203.452,103.919 			"/>
			<circle fill="#4D4D4D" cx="-186.284" cy="81.276" r="5.488"/>
		</g>
		<g display="inline">
			<g>
				<g opacity="0.2">
					<circle cx="-186.284" cy="263.804" r="81.275"/>
				</g>
				<g>
					<circle fill="#348EA9" cx="-186.284" cy="260.196" r="81.275"/>
				</g>
			</g>
			<path opacity="0.3" fill="#348EA9" d="M-121.386,304.534c-17.155,17.154-40.702,32.42-64.976,32.42s-47.821-15.266-64.976-32.42
				c-3.122-3.123-5.997-6.459-8.615-9.972c12.949,27.709,41.063,46.91,73.667,46.91c32.824,0,61.1-19.461,73.929-47.472
				C-115.084,297.72-118.098,301.245-121.386,304.534z"/>
			<circle fill="#F2F2F2" cx="-186.284" cy="260.196" r="67.818"/>
			<path fill="#F2F2F2" d="M-240.421,221.571c14.178-14.178,33.638-22.243,53.699-22.243c20.06,0,39.521,8.065,53.699,22.243
				c2.906,2.907,5.552,6.039,7.928,9.35c-10.927-22.798-34.219-38.542-61.188-38.542c-25.538,0-47.774,14.118-59.342,34.973
				C-243.996,225.343-242.261,223.412-240.421,221.571z"/>
			<g>
				<text transform="matrix(1 0 0 1 -196.3208 214.626)" fill="#4D4D4D" font-family="'Exo-Bold'" font-size="19.5672">12</text>
			</g>
			<g>
				<text transform="matrix(1 0 0 1 -191.3018 320.3447)" fill="#4D4D4D" font-family="'Exo-Bold'" font-size="19.5672">6</text>
			</g>
			<g>
				<text transform="matrix(1 0 0 1 -138.4424 267.4854)" fill="#4D4D4D" font-family="'Exo-Bold'" font-size="19.5672">3</text>
			</g>
			<g>
				<text transform="matrix(1 0 0 1 -244.1616 267.4854)" fill="#4D4D4D" font-family="'Exo-Bold'" font-size="19.5672">9</text>
			</g>
			<g>
				<text transform="matrix(1 0 0 1 -144.2373 240.5693)" fill="#4D4D4D" font-family="'Exo-Bold'" font-size="19.5672">2</text>
			</g>
			<g>
				<text transform="matrix(1 0 0 1 -243.1987 240.5713)" fill="#4D4D4D" font-family="'Exo-Bold'" font-size="19.5672">10</text>
			</g>
			<g>
				<text transform="matrix(1 0 0 1 -163.3555 221.8779)" fill="#4D4D4D" font-family="'Exo-Bold'" font-size="19.5672">1</text>
			</g>
			<g>
				<text transform="matrix(1 0 0 1 -224.0801 221.8789)" fill="#4D4D4D" font-family="'Exo-Bold'" font-size="19.5672">11</text>
			</g>
			<g>
				<text transform="matrix(1 0 0 1 -163.3555 313.8408)" fill="#4D4D4D" font-family="'Exo-Bold'" font-size="19.5672">5</text>
			</g>
			<g>
				<text transform="matrix(1 0 0 1 -219.0615 313.8408)" fill="#4D4D4D" font-family="'Exo-Bold'" font-size="19.5672">7</text>
			</g>
			<g>
				<text transform="matrix(1 0 0 1 -144.2373 293.8408)" fill="#4D4D4D" font-family="'Exo-Bold'" font-size="19.5672">4</text>
			</g>
			<g>
				<text transform="matrix(1 0 0 1 -238.1802 293.8408)" fill="#4D4D4D" font-family="'Exo-Bold'" font-size="19.5672">8</text>
			</g>
			<polygon fill="#348EA9" points="-186.284,208.663 -189.83,213.686 -189.065,260.197 -183.502,260.197 -182.739,213.686 			"/>
			<polygon fill="#348EA9" points="-215.05,243.589 -212.473,249.17 -187.675,262.605 -184.893,257.788 -208.928,243.029 			"/>
			<circle fill="#4D4D4D" cx="-186.284" cy="260.196" r="5.488"/>
		</g>
	</g>
	<g>
		<g display="none">
			<g display="inline">
				<g opacity="0.2">
					<circle cx="81.275" cy="-272.958" r="81.275"/>
				</g>
				<g>
					<circle fill="#F48C37" cx="81.275" cy="-276.565" r="81.275"/>
				</g>
			</g>
			<path display="inline" opacity="0.3" fill="#F48C37" d="M146.174-232.228c-17.155,17.154-40.702,32.42-64.976,32.42
				s-47.821-15.266-64.976-32.42c-3.122-3.123-5.997-6.459-8.614-9.971c12.948,27.708,41.063,46.909,73.667,46.909
				c32.824,0,61.1-19.46,73.93-47.471C152.477-239.042,149.462-235.517,146.174-232.228z"/>
			<circle display="inline" fill="#F2F2F2" cx="81.275" cy="-276.565" r="67.818"/>
			<path display="inline" fill="#F2F2F2" d="M27.139-315.19c14.178-14.178,33.638-22.243,53.698-22.243s39.521,8.065,53.699,22.243
				c2.907,2.907,5.552,6.039,7.929,9.35c-10.928-22.798-34.22-38.542-61.189-38.542c-25.538,0-47.774,14.118-59.342,34.972
				C23.563-311.419,25.299-313.35,27.139-315.19z"/>
			<g display="inline">
				<text transform="matrix(1 0 0 1 71.2383 -322.1357)" fill="#4D4D4D" font-family="'Exo-Bold'" font-size="19.5672">12</text>
			</g>
			<g display="inline">
				<text transform="matrix(1 0 0 1 76.2578 -216.4165)" fill="#4D4D4D" font-family="'Exo-Bold'" font-size="19.5672">6</text>
			</g>
			<g display="inline">
				<text transform="matrix(1 0 0 1 129.1182 -269.2764)" fill="#4D4D4D" font-family="'Exo-Bold'" font-size="19.5672">3</text>
			</g>
			<g display="inline">
				<text transform="matrix(1 0 0 1 23.3994 -269.2759)" fill="#4D4D4D" font-family="'Exo-Bold'" font-size="19.5672">9</text>
			</g>
			<g display="inline">
				<text transform="matrix(1 0 0 1 123.3232 -296.1924)" fill="#4D4D4D" font-family="'Exo-Bold'" font-size="19.5672">2</text>
			</g>
			<g display="inline">
				<text transform="matrix(1 0 0 1 24.3604 -296.1914)" fill="#4D4D4D" font-family="'Exo-Bold'" font-size="19.5672">10</text>
			</g>
			<g display="inline">
				<text transform="matrix(1 0 0 1 104.2041 -314.8843)" fill="#4D4D4D" font-family="'Exo-Bold'" font-size="19.5672">1</text>
			</g>
			<g display="inline">
				<text transform="matrix(1 0 0 1 43.4785 -314.8828)" fill="#4D4D4D" font-family="'Exo-Bold'" font-size="19.5672">11</text>
			</g>
			<g display="inline">
				<text transform="matrix(1 0 0 1 104.2041 -222.9219)" fill="#4D4D4D" font-family="'Exo-Bold'" font-size="19.5672">5</text>
			</g>
			<g display="inline">
				<text transform="matrix(1 0 0 1 48.498 -222.9209)" fill="#4D4D4D" font-family="'Exo-Bold'" font-size="19.5672">7</text>
			</g>
			<g display="inline">
				<text transform="matrix(1 0 0 1 123.3232 -242.9214)" fill="#4D4D4D" font-family="'Exo-Bold'" font-size="19.5672">4</text>
			</g>
			<g display="inline">
				<text transform="matrix(1 0 0 1 29.3799 -242.9204)" fill="#4D4D4D" font-family="'Exo-Bold'" font-size="19.5672">8</text>
			</g>
			<polygon display="inline" fill="#F48C37" points="81.275,-328.099 77.729,-323.076 78.494,-276.565 84.057,-276.565 
				84.82,-323.076 			"/>
			<polygon display="inline" fill="#F48C37" points="110.041,-293.173 103.919,-293.732 79.884,-278.974 82.666,-274.156 
				107.464,-287.591 			"/>
			<circle display="inline" fill="#4D4D4D" cx="81.275" cy="-276.565" r="5.488"/>
		</g>
		<g display="none">
			<g display="inline">
				<g opacity="0.2">
					<circle cx="81.275" cy="-94.037" r="81.275"/>
				</g>
				<g>
					<circle fill="#348EA9" cx="81.275" cy="-97.645" r="81.275"/>
				</g>
			</g>
			<path display="inline" opacity="0.3" fill="#348EA9" d="M146.174-53.308c-17.155,17.155-40.702,32.421-64.976,32.421
				S33.377-36.153,16.223-53.308c-3.122-3.123-5.997-6.459-8.614-9.971C20.557-35.57,48.671-16.369,81.275-16.369
				c32.824,0,61.1-19.46,73.93-47.471C152.477-60.122,149.462-56.596,146.174-53.308z"/>
			<circle display="inline" fill="#F2F2F2" cx="81.275" cy="-97.645" r="67.818"/>
			<path display="inline" fill="#F2F2F2" d="M27.139-136.27c14.178-14.177,33.638-22.243,53.698-22.243s39.521,8.065,53.699,22.243
				c2.907,2.907,5.552,6.039,7.929,9.35c-10.928-22.798-34.22-38.542-61.189-38.542c-25.538,0-47.774,14.118-59.342,34.972
				C23.563-132.498,25.299-134.429,27.139-136.27z"/>
			<g display="inline">
				<text transform="matrix(1 0 0 1 71.2383 -143.2153)" fill="#4D4D4D" font-family="'Exo-Bold'" font-size="19.5672">12</text>
			</g>
			<g display="inline">
				<text transform="matrix(1 0 0 1 76.2578 -37.4961)" fill="#4D4D4D" font-family="'Exo-Bold'" font-size="19.5672">6</text>
			</g>
			<g display="inline">
				<text transform="matrix(1 0 0 1 129.1182 -90.356)" fill="#4D4D4D" font-family="'Exo-Bold'" font-size="19.5672">3</text>
			</g>
			<g display="inline">
				<text transform="matrix(1 0 0 1 23.3994 -90.355)" fill="#4D4D4D" font-family="'Exo-Bold'" font-size="19.5672">9</text>
			</g>
			<g display="inline">
				<text transform="matrix(1 0 0 1 123.3232 -117.2715)" fill="#4D4D4D" font-family="'Exo-Bold'" font-size="19.5672">2</text>
			</g>
			<g display="inline">
				<text transform="matrix(1 0 0 1 24.3604 -117.271)" fill="#4D4D4D" font-family="'Exo-Bold'" font-size="19.5672">10</text>
			</g>
			<g display="inline">
				<text transform="matrix(1 0 0 1 104.2041 -135.9629)" fill="#4D4D4D" font-family="'Exo-Bold'" font-size="19.5672">1</text>
			</g>
			<g display="inline">
				<text transform="matrix(1 0 0 1 43.4785 -135.9624)" fill="#4D4D4D" font-family="'Exo-Bold'" font-size="19.5672">11</text>
			</g>
			<g display="inline">
				<text transform="matrix(1 0 0 1 104.2041 -44.001)" fill="#4D4D4D" font-family="'Exo-Bold'" font-size="19.5672">5</text>
			</g>
			<g display="inline">
				<text transform="matrix(1 0 0 1 48.498 -44.0005)" fill="#4D4D4D" font-family="'Exo-Bold'" font-size="19.5672">7</text>
			</g>
			<g display="inline">
				<text transform="matrix(1 0 0 1 123.3232 -64.0005)" fill="#4D4D4D" font-family="'Exo-Bold'" font-size="19.5672">4</text>
			</g>
			<g display="inline">
				<text transform="matrix(1 0 0 1 29.3799 -64)" fill="#4D4D4D" font-family="'Exo-Bold'" font-size="19.5672">8</text>
			</g>
			<polygon display="inline" fill="#348EA9" points="81.275,-149.178 77.729,-144.155 78.494,-97.644 84.057,-97.644 
				84.82,-144.155 			"/>
			<polygon display="inline" fill="#348EA9" points="97.884,-68.878 98.442,-75.001 83.684,-99.035 78.867,-96.254 92.302,-71.456 
							"/>
			<circle display="inline" fill="#4D4D4D" cx="81.275" cy="-97.645" r="5.488"/>
		</g>
		<g>
			<g>
				<g opacity="0.2">
					<circle cx="81.275" cy="84.884" r="81.275"/>
				</g>
				<g>
					<circle fill="#F04946" cx="81.275" cy="81.276" r="81.275"/>
				</g>
			</g>
			<path opacity="0.3" fill="#F04946" d="M146.174,125.613c-17.155,17.154-40.702,32.421-64.976,32.421
				s-47.821-15.267-64.976-32.421c-3.122-3.123-5.997-6.459-8.614-9.971c12.948,27.708,41.063,46.909,73.667,46.909
				c32.824,0,61.1-19.46,73.93-47.472C152.477,118.799,149.462,122.324,146.174,125.613z"/>
			<circle fill="#F2F2F2" cx="81.275" cy="81.276" r="67.818"/>
			<path fill="#F2F2F2" d="M27.139,42.65c14.178-14.177,33.638-22.242,53.698-22.242s39.521,8.065,53.699,22.242
				c2.907,2.907,5.552,6.039,7.929,9.351c-10.928-22.798-34.22-38.543-61.189-38.543c-25.538,0-47.774,14.118-59.342,34.973
				C23.563,46.423,25.299,44.491,27.139,42.65z"/>
			<g>
				<text transform="matrix(1 0 0 1 71.2383 35.7061)" fill="#4D4D4D" font-family="'Exo-Bold'" font-size="19.5672">12</text>
			</g>
			<g>
				<text transform="matrix(1 0 0 1 76.2578 141.4248)" fill="#4D4D4D" font-family="'Exo-Bold'" font-size="19.5672">6</text>
			</g>
			<g>
				<text transform="matrix(1 0 0 1 129.1182 88.5654)" fill="#4D4D4D" font-family="'Exo-Bold'" font-size="19.5672">3</text>
			</g>
			<g>
				<text transform="matrix(1 0 0 1 23.3994 88.5654)" fill="#4D4D4D" font-family="'Exo-Bold'" font-size="19.5672">9</text>
			</g>
			<g>
				<text transform="matrix(1 0 0 1 123.3232 61.6494)" fill="#4D4D4D" font-family="'Exo-Bold'" font-size="19.5672">2</text>
			</g>
			<g>
				<text transform="matrix(1 0 0 1 24.3604 61.6494)" fill="#4D4D4D" font-family="'Exo-Bold'" font-size="19.5672">10</text>
			</g>
			<g>
				<text transform="matrix(1 0 0 1 104.2041 42.958)" fill="#4D4D4D" font-family="'Exo-Bold'" font-size="19.5672">1</text>
			</g>
			<g>
				<text transform="matrix(1 0 0 1 43.4785 42.958)" fill="#4D4D4D" font-family="'Exo-Bold'" font-size="19.5672">11</text>
			</g>
			<g>
				<text transform="matrix(1 0 0 1 104.2041 134.9189)" fill="#4D4D4D" font-family="'Exo-Bold'" font-size="19.5672">5</text>
			</g>
			<g>
				<text transform="matrix(1 0 0 1 48.498 134.9209)" fill="#4D4D4D" font-family="'Exo-Bold'" font-size="19.5672">7</text>
			</g>
			<g>
				<text transform="matrix(1 0 0 1 123.3232 114.9199)" fill="#4D4D4D" font-family="'Exo-Bold'" font-size="19.5672">4</text>
			</g>
			<g>
				<text transform="matrix(1 0 0 1 29.3799 114.9209)" fill="#4D4D4D" font-family="'Exo-Bold'" font-size="19.5672">8</text>
			</g>
			<polygon fill="#F04946" points="81.275,29.742 77.729,34.766 78.494,81.276 84.057,81.276 84.82,34.766 			"/>
			<polygon fill="#F04946" points="52.509,97.884 58.632,98.442 82.666,83.685 79.885,78.867 55.086,92.302 			"/>
			<circle fill="#4D4D4D" cx="81.275" cy="81.276" r="5.488"/>
		</g>
		<g display="none">
			<g display="inline">
				<g opacity="0.2">
					<circle cx="81.275" cy="263.804" r="81.275"/>
				</g>
				<g>
					<circle fill="#53BB9B" cx="81.275" cy="260.196" r="81.275"/>
				</g>
			</g>
			<path display="inline" opacity="0.3" fill="#53BB9B" d="M146.174,304.534c-17.155,17.154-40.702,32.42-64.976,32.42
				s-47.821-15.266-64.976-32.42c-3.122-3.123-5.997-6.459-8.614-9.972c12.948,27.709,41.063,46.91,73.667,46.91
				c32.824,0,61.1-19.461,73.93-47.472C152.477,297.72,149.462,301.245,146.174,304.534z"/>
			<circle display="inline" fill="#F2F2F2" cx="81.275" cy="260.196" r="67.818"/>
			<path display="inline" fill="#F2F2F2" d="M27.139,221.571c14.178-14.178,33.638-22.243,53.698-22.243s39.521,8.065,53.699,22.243
				c2.907,2.907,5.552,6.039,7.929,9.35c-10.928-22.798-34.22-38.542-61.189-38.542c-25.538,0-47.774,14.118-59.342,34.973
				C23.563,225.343,25.299,223.412,27.139,221.571z"/>
			<g display="inline">
				<text transform="matrix(1 0 0 1 71.2383 214.626)" fill="#4D4D4D" font-family="'Exo-Bold'" font-size="19.5672">12</text>
			</g>
			<g display="inline">
				<text transform="matrix(1 0 0 1 76.2578 320.3447)" fill="#4D4D4D" font-family="'Exo-Bold'" font-size="19.5672">6</text>
			</g>
			<g display="inline">
				<text transform="matrix(1 0 0 1 129.1182 267.4854)" fill="#4D4D4D" font-family="'Exo-Bold'" font-size="19.5672">3</text>
			</g>
			<g display="inline">
				<text transform="matrix(1 0 0 1 23.3994 267.4854)" fill="#4D4D4D" font-family="'Exo-Bold'" font-size="19.5672">9</text>
			</g>
			<g display="inline">
				<text transform="matrix(1 0 0 1 123.3232 240.5693)" fill="#4D4D4D" font-family="'Exo-Bold'" font-size="19.5672">2</text>
			</g>
			<g display="inline">
				<text transform="matrix(1 0 0 1 24.3604 240.5713)" fill="#4D4D4D" font-family="'Exo-Bold'" font-size="19.5672">10</text>
			</g>
			<g display="inline">
				<text transform="matrix(1 0 0 1 104.2041 221.8779)" fill="#4D4D4D" font-family="'Exo-Bold'" font-size="19.5672">1</text>
			</g>
			<g display="inline">
				<text transform="matrix(1 0 0 1 43.4785 221.8789)" fill="#4D4D4D" font-family="'Exo-Bold'" font-size="19.5672">11</text>
			</g>
			<g display="inline">
				<text transform="matrix(1 0 0 1 104.2041 313.8408)" fill="#4D4D4D" font-family="'Exo-Bold'" font-size="19.5672">5</text>
			</g>
			<g display="inline">
				<text transform="matrix(1 0 0 1 48.498 313.8408)" fill="#4D4D4D" font-family="'Exo-Bold'" font-size="19.5672">7</text>
			</g>
			<g display="inline">
				<text transform="matrix(1 0 0 1 123.3232 293.8408)" fill="#4D4D4D" font-family="'Exo-Bold'" font-size="19.5672">4</text>
			</g>
			<g display="inline">
				<text transform="matrix(1 0 0 1 29.3799 293.8408)" fill="#4D4D4D" font-family="'Exo-Bold'" font-size="19.5672">8</text>
			</g>
			<polygon display="inline" fill="#53BB9B" points="81.275,208.663 77.729,213.686 78.494,260.197 84.057,260.197 84.82,213.686 
							"/>
			<polygon display="inline" fill="#53BB9B" points="64.667,231.431 64.108,237.553 78.867,261.588 83.684,258.807 70.249,234.008 
							"/>
			<circle display="inline" fill="#4D4D4D" cx="81.275" cy="260.196" r="5.488"/>
		</g>
	</g>
</g>
</svg>
