<?xml version="1.0" encoding="utf-8"?>
<!-- Generator: Adobe Illustrator 21.1.0, SVG Export Plug-In . SVG Version: 6.00 Build 0)  -->
<svg version="1.1" id="Capa_1" xmlns="http://www.w3.org/2000/svg" xmlns:xlink="http://www.w3.org/1999/xlink" x="0px" y="0px"
	 viewBox="0 0 1024 1024" style="enable-background:new 0 0 1024 1024;" xml:space="preserve">
<style type="text/css">
	.st0{fill:#FFFFFF;}
	.st1{fill:#BB935B;}
	.st2{fill:#830016;}
</style>
<circle class="st0" cx="512" cy="512" r="499.7"/>
<path class="st2" d="M351.3,313.5c20.6-16.7,43.9-30.3,69.1-40l-8.8-32.7l-1.8,0.5c-2.3,0.6-4.6,0.9-6.9,0.9
	c-11.8,0-22.6-7.9-25.8-19.8c-3.8-14.2,4.6-28.9,18.9-32.7l27.6-7.4c0,0,0,0,0,0c0,0,0,0,0,0l27.6-7.4c14.2-3.8,28.9,4.6,32.7,18.9
	c3.8,14.2-4.6,28.9-18.9,32.7l-1.8,0.5l8.7,32.6c13-2.1,26.4-3.1,40-3.1c13.6,0,26.9,1.1,40,3.1l8.7-32.6l-1.8-0.5
	c-14.2-3.8-22.7-18.5-18.9-32.7c3.8-14.2,18.5-22.7,32.7-18.9l27.6,7.4c0,0,0,0,0,0c0,0,0,0,0,0l27.6,7.4
	c14.2,3.8,22.7,18.5,18.9,32.7c-3.2,11.9-14,19.8-25.8,19.8c-2.3,0-4.6-0.3-6.9-0.9l-1.8-0.5l-8.8,32.7c25.2,9.7,48.5,23.3,69.1,40
	l24-24l-1.3-1.3c-10.4-10.4-10.4-27.3,0-37.8c10.4-10.4,27.3-10.4,37.8,0l20.2,20.2l0,0l20.2,20.2c10.4,10.4,10.4,27.3,0,37.8
	c-10.4,10.4-27.3,10.4-37.8,0l-1.3-1.3l-24,24c16.7,20.6,30.3,43.9,40,69.1l32.7-8.8l-0.5-1.8c-3.8-14.2,4.6-28.9,18.9-32.7
	c14.2-3.8,28.9,4.6,32.7,18.9l7.4,27.6c0,0,0,0,0,0c0,0,0,0,0,0l7.4,27.6c3.8,14.2-4.6,28.9-18.9,32.7c-13.6,3.6-28.7-4-32.7-18.9
	l-0.5-1.8l-32.6,8.7c2.1,13,3.1,26.4,3.1,40c0,13.6-1.1,26.9-3.1,40l32.6,8.7l0.5-1.8c3.8-14.2,18.5-22.7,32.7-18.9
	c14.2,3.8,22.7,18.5,18.9,32.7l-7.4,27.6c0,0,0,0,0,0c0,0,0,0,0,0l-7.4,27.6c-4,14.8-19,22.6-32.7,18.9
	c-14.2-3.8-22.7-18.5-18.9-32.7l0.5-1.8l-32.7-8.7c-9.7,25.2-23.3,48.5-40,69.1l141.9,141.9C924,734.1,967.7,628,967.7,512
	c0-251.3-204.4-455.7-455.7-455.7c-116,0-222.1,43.6-302.6,115.3L351.3,313.5z M351.3,313.5"/>
<path class="st2" d="M672.7,710.5c-20.6,16.7-43.9,30.3-69.1,40l8.8,32.7l1.8-0.5c14.2-3.8,28.9,4.6,32.7,18.9
	c3.8,14.2-4.6,28.9-18.9,32.7L572.7,849c-13.6,3.6-28.7-4-32.7-18.9c-3.8-14.2,4.6-28.9,18.9-32.7l1.8-0.5l-8.7-32.6
	c-13,2.1-26.4,3.1-40,3.1c-13.6,0-26.9-1.1-40-3.1l-8.7,32.6l1.8,0.5c14.2,3.8,22.7,18.5,18.9,32.7c-4,14.8-19,22.6-32.7,18.9
	L396,834.2c-14.2-3.8-22.7-18.5-18.9-32.7c3.8-14.2,18.5-22.7,32.7-18.9l1.8,0.5l8.8-32.7c-25.2-9.7-48.5-23.3-69.1-40l-24,24
	l1.3,1.3c10.4,10.4,10.4,27.3,0,37.8c-10.4,10.4-27.3,10.4-37.8,0l-40.4-40.4c-10.4-10.4-10.4-27.3,0-37.7
	c10.4-10.4,27.3-10.4,37.8,0l1.3,1.3l24-24c-16.8-20.6-30.3-43.9-40.1-69.1l-32.6,8.8l0.5,1.8c3.8,14.2-4.6,28.9-18.9,32.7
	c-13.6,3.6-28.7-4-32.7-18.9L175,572.7c-3.8-14.2,4.6-28.9,18.9-32.7c14.2-3.8,28.9,4.6,32.7,18.9l0.5,1.8l32.6-8.7
	c-2.1-13-3.1-26.4-3.1-40c0-13.6,1.1-26.9,3.1-40l-32.6-8.7l-0.5,1.8c-4,14.8-19,22.6-32.7,18.9c-14.2-3.8-22.7-18.5-18.9-32.7
	l14.8-55.2c3.8-14.2,18.5-22.7,32.7-18.9c14.2,3.8,22.7,18.5,18.9,32.7l-0.5,1.8l32.6,8.7c9.7-25.2,23.3-48.5,40.1-69.1L171.6,209.4
	C100,289.9,56.3,396,56.3,512c0,251.3,204.4,455.7,455.7,455.7c116,0,222.1-43.6,302.6-115.3L672.7,710.5z M672.7,710.5"/>
<path class="st1" d="M512,309.9c-46.1,0-88.7,15.5-122.7,41.6l283.1,283.1c26.1-34,41.6-76.6,41.6-122.7
	C714.1,400.6,623.4,309.9,512,309.9z M540.6,424.3c-14.7,0-26.7-12-26.7-26.7c0-14.7,12-26.7,26.7-26.7c14.7,0,26.7,12,26.7,26.7
	C567.3,412.3,555.3,424.3,540.6,424.3z M626.4,510.1c-14.7,0-26.7-12-26.7-26.7c0-14.7,12-26.7,26.7-26.7c14.7,0,26.7,12,26.7,26.7
	C653.1,498.1,641.1,510.1,626.4,510.1z"/>
<path class="st1" d="M351.5,389.3c-26.1,34-41.6,76.6-41.6,122.7c0,111.4,90.6,202.1,202.1,202.1c46.1,0,88.7-15.5,122.7-41.6
	L351.5,389.3z M397.6,567.3c-14.7,0-26.7-12-26.7-26.7c0-14.7,12-26.7,26.7-26.7c14.7,0,26.7,12,26.7,26.7
	C424.3,555.3,412.3,567.3,397.6,567.3z M483.4,653.1c-14.7,0-26.7-12-26.7-26.7c0-14.7,12-26.7,26.7-26.7c14.7,0,26.7,12,26.7,26.7
	C510.1,641.1,498.1,653.1,483.4,653.1z"/>
</svg>
