<?xml version="1.0" encoding="iso-8859-1"?>
<!-- Generator: Adobe Illustrator 19.0.0, SVG Export Plug-In . SVG Version: 6.00 Build 0)  -->
<svg version="1.1" id="Layer_1" xmlns="http://www.w3.org/2000/svg" xmlns:xlink="http://www.w3.org/1999/xlink" x="0px" y="0px"
	 viewBox="0 0 491.52 491.52" style="enable-background:new 0 0 491.52 491.52;" xml:space="preserve">
<path style="fill:#F6C358;" d="M469.89,80.537H193.816c-9.754,0-18.303-6.528-20.869-15.94l-6.979-25.595
	c-2.567-9.411-11.113-15.94-20.867-15.94H21.63C9.684,23.063,0,32.747,0,44.693v402.135c0,11.946,9.684,21.63,21.63,21.63H469.89
	c11.946,0,21.63-9.684,21.63-21.63V102.166C491.52,90.221,481.836,80.537,469.89,80.537z"/>
<rect x="36.639" y="115.092" style="fill:#FFFFFF;" width="418.253" height="135.05"/>
<rect x="36.639" y="115.092" style="fill:#EBF0F3;" width="418.253" height="20.311"/>
<path style="fill:#FCD462;" d="M469.89,172.566H21.63c-11.946,0-21.63,9.684-21.63,21.63v252.632c0,11.946,9.684,21.63,21.63,21.63
	H469.89c11.946,0,21.63-9.684,21.63-21.63V194.195C491.52,182.249,481.836,172.566,469.89,172.566z"/>
<g>
	<circle style="fill:#CE412D;" cx="354.611" cy="254.106" r="31.524"/>
	<path style="fill:#CE412D;" d="M354.612,302.826c-42.445,0-76.854,34.41-76.854,76.855h153.709
		C431.467,337.236,397.057,302.826,354.612,302.826z"/>
</g>
<g>
	<circle style="fill:#DC8744;" cx="136.909" cy="254.106" r="31.524"/>
	<path style="fill:#DC8744;" d="M136.908,302.826c-42.445,0-76.855,34.41-76.855,76.855h153.709
		C213.762,337.236,179.353,302.826,136.908,302.826z"/>
</g>
<g>
	<circle style="fill:#2D93BA;" cx="245.76" cy="301.133" r="31.524"/>
	<path style="fill:#2D93BA;" d="M242.221,349.851c-42.445,0-76.857,34.41-76.857,76.855h153.712
		C319.076,384.261,284.664,349.851,242.221,349.851z"/>
</g>
<g>
</g>
<g>
</g>
<g>
</g>
<g>
</g>
<g>
</g>
<g>
</g>
<g>
</g>
<g>
</g>
<g>
</g>
<g>
</g>
<g>
</g>
<g>
</g>
<g>
</g>
<g>
</g>
<g>
</g>
</svg>
