<svg id="Capa_1" enable-background="new 0 0 512 512" height="512" viewBox="0 0 512 512" width="512" xmlns="http://www.w3.org/2000/svg"><g><g><path d="m264.341 210.83-115.515 69.822-26.241 129.38 32.631 91.937h246.054c17.641 0 31.938-14.297 31.938-31.952 0-8.814-3.571-16.812-9.349-22.59s-13.776-9.349-22.59-9.349h11.462c17.641 0 31.952-14.297 31.952-31.952 0-8.827-3.571-16.799-9.362-22.59-5.778-5.778-13.763-9.349-22.59-9.349h11.475c17.641 0 31.939-14.297 31.939-31.952 0-17.641-14.298-31.939-31.939-31.939h-11.475c17.641 0 31.952-14.297 31.952-31.952 0-8.827-3.571-16.799-9.362-22.59-5.778-5.778-13.763-9.349-22.59-9.349h-.963l-88.727-28.421c-15.594-15.593-39.815-18.536-58.7-7.154z" fill="#ffddce"/><path d="m279.298 230.407h32.652v16.002h-32.652c-4.419 0-8.001-3.582-8.001-8.001.001-4.419 3.583-8.001 8.001-8.001z" fill="#ffcbbe"/><g><path d="m430.965 458.253c1.443 3.643 2.244 7.611 2.244 11.764 0 17.655-14.297 31.952-31.938 31.952h-262.208v-23.53h262.207c13.487 0 25.011-8.361 29.695-20.186z" fill="#ffcbbe"/></g><g><path d="m442.427 394.363c1.443 3.643 2.244 7.611 2.244 11.764 0 17.655-14.297 31.952-31.938 31.952h-12.241c-6.498 0-11.765-5.267-11.765-11.765 0-6.498 5.267-11.765 11.765-11.765h12.241c13.486 0 25.01-8.361 29.694-20.186z" fill="#ffcbbe"/></g><g><path d="m453.902 330.472c1.443 3.643 2.244 7.611 2.244 11.764 0 17.655-14.297 31.952-31.938 31.952h-12.241c-6.498 0-11.765-5.267-11.765-11.765 0-6.498 5.267-11.765 11.765-11.765h12.241c13.487 0 25.011-8.361 29.694-20.186z" fill="#ffcbbe"/></g><g><path d="m442.44 266.582c1.443 3.643 2.244 7.611 2.244 11.764 0 17.655-14.297 31.952-31.938 31.952h-12.241c-6.498 0-11.765-5.267-11.765-11.765 0-6.498 5.267-11.765 11.765-11.765h12.241c13.487 0 25.011-8.361 29.694-20.186z" fill="#ffcbbe"/></g><path d="m411.769 111.043v135.366h-106.881v-135.366l53.435-16.753z" fill="#da4a54"/><path d="m55.86 287.771v199.212c0 13.817 11.201 25.017 25.017 25.017h49.326c13.816 0 25.017-11.2 25.017-25.017v-199.212c0-13.816-11.2-25.017-25.017-25.017h-49.326c-13.816 0-25.017 11.201-25.017 25.017z" fill="#f9f6f9"/><path d="m345.106 97.682-2.751 24.621v124.106h-37.467v-135.366z" fill="#d82e3d"/><path d="m55.854 424.235v62.754c0 13.816 11.208 25.01 25.024 25.01h49.326c13.816 0 25.011-11.195 25.011-25.01v-62.754c0 13.816-11.194 25.024-25.011 25.024h-49.326c-13.816.001-25.024-11.207-25.024-25.024z" fill="#e2dfe2"/><path d="m411.769 107.994v3.049c-16.164 7.798-34.295 12.166-53.446 12.166s-37.272-4.368-53.435-12.166v-3.049l21.861-44.174 31.575-8.688 31.585 8.688z" fill="#ffef4a"/><path d="m343.493 58.426 4.651 12.038-5.778 51.715c-13.269-1.71-25.878-5.543-37.478-11.136v-3.049l21.86-44.174 16.966-19.318z" fill="#ffd321"/><path d="m389.908 63.82c-9.519 4.729-20.243 7.376-31.585 7.376s-22.056-2.647-31.575-7.376l31.575-63.82z" fill="#665e66"/><path d="m358.334.021v.01l-9.447 63.789-.742 6.645c-7.582-1.071-14.773-3.358-21.397-6.645l31.575-63.82z" fill="#544f57"/></g><circle cx="106.875" cy="451.255" fill="#665e66" r="22.61"/></g></svg>