<svg id="Layer_5" enable-background="new 0 0 64 64" height="512" viewBox="0 0 64 64" width="512" xmlns="http://www.w3.org/2000/svg"><g><g><g><path d="m14 38v-34c0-1.1.9-2 2-2h35.17c.29 0 .57.06.83.18v7.82c0 1.1.9 2 2 2h7.82c.12.26.18.54.18.83v43.17c0 1.1-.9 2-2 2h-28v-2c0-1.1-.9-2-2-2 1.1 0 2-.9 2-2v-4c0-1.1-.9-2-2-2 1.1 0 2-.9 2-2v-4c0-1.1-.9-2-2-2z" fill="#e6e9ed"/></g><g><path d="m48 38v8l-5.66 5.66c-1.44-1.45-2.34-3.45-2.34-5.66 0-4.42 3.58-8 8-8z" fill="#5cd6b3"/></g><g><path d="m48 46h8c0 4.42-3.58 8-8 8-2.21 0-4.21-.9-5.66-2.34z" fill="#fcd770"/></g><g><path d="m61.82 12h-7.82c-1.1 0-2-.9-2-2v-7.82c.22.1.42.24.59.41l8.82 8.82c.17.17.31.37.41.59z" fill="#fcd770"/></g><g><path d="m54 20v6h-4v-8h-4v4h-4v12h16v-14z" fill="#5cd6b3"/></g><g><path d="m18 6h20v4h-20z" fill="#ff826e"/></g><g><path d="m56 46h-8v-8c4.42 0 8 3.58 8 8z" fill="#ff826e"/></g><g><path d="m2 60v-4c0-1.1.9-2 2-2h26c1.1 0 2 .9 2 2v2 2c0 1.1-.9 2-2 2h-26c-1.1 0-2-.9-2-2z" fill="#fcd770"/></g><g><path d="m32 48v4c0 1.1-.9 2-2 2h-26c-1.1 0-2-.9-2-2v-4c0-1.1.9-2 2-2h26c1.1 0 2 .9 2 2z" fill="#fcd770"/></g><g><path d="m2 44v-4c0-1.1.9-2 2-2h10 16c1.1 0 2 .9 2 2v4c0 1.1-.9 2-2 2h-26c-1.1 0-2-.9-2-2z" fill="#fcd770"/></g></g><g><path d="m5 57h2v2h-2z"/><path d="m9 57h2v2h-2z"/><path d="m13 57h2v2h-2z"/><path d="m9 41h2v2h-2z"/><path d="m13 41h2v2h-2z"/><path d="m5 41h2v2h-2z"/><path d="m23 49h2v2h-2z"/><path d="m19 49h2v2h-2z"/><path d="m27 49h2v2h-2z"/><path d="m62.121 10.707-8.828-8.828c-.566-.567-1.32-.879-2.121-.879h-35.172c-1.654 0-3 1.346-3 3v33h-9c-1.654 0-3 1.346-3 3v4c0 .771.301 1.468.78 2-.479.532-.78 1.229-.78 2v4c0 .771.301 1.468.78 2-.479.532-.78 1.229-.78 2v4c0 1.654 1.346 3 3 3h26c1.654 0 3-1.346 3-3v-1h27c1.654 0 3-1.346 3-3v-43.171c0-.802-.312-1.556-.879-2.122zm-9.121-6.293 6.586 6.586h-5.586c-.552 0-1-.449-1-1zm-50 35.586c0-.552.448-1 1-1h26c.552 0 1 .448 1 1v4c0 .552-.448 1-1 1h-26c-.552 0-1-.448-1-1zm0 12v-4c0-.552.448-1 1-1h26c.552 0 1 .448 1 1v4c0 .552-.448 1-1 1h-26c-.552 0-1-.448-1-1zm28 8c0 .552-.448 1-1 1h-26c-.552 0-1-.448-1-1v-4c0-.552.448-1 1-1h26c.552 0 1 .448 1 1zm29-3h-27v-1c0-.771-.301-1.468-.78-2 .48-.532.78-1.229.78-2v-4c0-.771-.301-1.468-.78-2 .48-.532.78-1.229.78-2v-4c0-1.654-1.346-3-3-3h-15v-33c0-.551.448-1 1-1h35v7c0 1.654 1.346 3 3 3h7v43c0 .552-.448 1-1 1z"/><path d="m39 5h-22v6h22zm-2 4h-18v-2h18z"/><path d="m17 13h22v2h-22z"/><path d="m37 17h2v2h-2z"/><path d="m17 17h18v2h-18z"/><path d="m17 21h2v2h-2z"/><path d="m21 21h18v2h-18z"/><path d="m17 25h22v2h-22z"/><path d="m17 29h22v2h-22z"/><path d="m17 33h18v2h-18z"/><path d="m37 33h2v2h-2z"/><path d="m53 25h-2v-8h-6v4h-4v14h18v-16h-6zm0 2v6h-2v-6zm-10-4h2v10h-2zm4-2v-2h2v6 8h-2zm8 0h2v12h-2v-8z"/><path d="m48 37c-4.963 0-9 4.037-9 9s4.037 9 9 9 9-4.037 9-9-4.037-9-9-9zm6.92 8h-5.92v-5.92c3.059.441 5.479 2.861 5.92 5.92zm-7.92-5.92v6.506l-4.598 4.598c-.876-1.169-1.402-2.614-1.402-4.184 0-3.519 2.614-6.432 6-6.92zm1 13.92c-1.57 0-3.015-.526-4.184-1.402l4.598-4.598h6.506c-.488 3.386-3.401 6-6.92 6z"/></g></g></svg>