<svg id="svg" version="1.1" xmlns="http://www.w3.org/2000/svg" xmlns:xlink="http://www.w3.org/1999/xlink" width="400" height="249.47916666666666" viewBox="0, 0, 400,249.47916666666666"><g id="svgg"><path id="path0" d="M192.888 14.623 C 176.598 15.669,161.512 23.181,151.341 35.312 C 150.655 36.131,149.835 37.066,149.518 37.390 C 147.865 39.084,144.698 44.400,142.954 48.409 C 142.507 49.439,142.007 50.449,141.845 50.655 C 141.560 51.016,141.413 51.446,140.269 55.271 C 132.120 82.537,143.082 110.656,167.020 123.889 C 167.957 124.408,168.782 124.982,168.853 125.166 C 169.127 125.879,165.550 135.849,164.911 136.154 C 164.584 136.309,163.669 136.731,162.876 137.089 C 160.711 138.070,159.352 139.454,158.602 141.440 C 157.705 143.818,153.253 157.059,136.455 207.305 C 129.635 227.706,129.461 226.617,140.126 230.218 C 143.824 231.466,147.018 232.553,147.224 232.633 C 155.849 235.983,156.868 235.363,160.447 224.579 C 161.562 221.216,162.568 218.241,162.682 217.966 C 162.796 217.692,163.237 216.400,163.662 215.097 C 165.455 209.596,179.708 167.019,179.909 166.563 C 180.030 166.288,181.315 162.461,182.766 158.058 C 186.042 148.112,186.117 146.997,183.772 143.189 L 182.901 141.774 184.497 136.951 C 185.375 134.298,186.208 131.839,186.348 131.486 L 186.603 130.845 189.309 131.162 C 195.873 131.932,202.713 131.488,210.683 129.775 C 225.982 126.486,241.108 114.119,248.704 98.690 C 249.447 97.180,250.319 95.434,250.641 94.809 C 251.723 92.713,253.572 85.922,254.307 81.347 C 254.768 78.479,254.768 67.754,254.308 64.878 C 253.554 60.163,251.455 52.528,250.536 51.154 C 250.306 50.811,249.966 50.137,249.781 49.657 C 243.471 33.335,226.383 19.631,207.338 15.618 C 204.090 14.933,196.353 14.401,192.888 14.623 M201.200 23.715 C 205.514 24.336,206.615 24.538,208.734 25.094 C 225.440 29.477,239.567 43.243,243.801 59.264 C 243.910 59.676,244.178 60.668,244.398 61.469 C 246.717 69.948,245.913 82.740,242.560 90.705 C 236.493 105.115,227.068 114.448,213.350 119.631 C 194.132 126.892,169.966 120.437,157.819 104.798 C 155.867 102.285,155.055 101.118,153.655 98.815 C 152.779 97.374,151.884 95.802,151.666 95.321 C 148.882 89.193,148.125 86.820,146.929 80.474 C 146.029 75.694,146.590 66.089,148.111 60.232 C 149.452 55.073,154.502 44.711,156.427 43.169 C 156.513 43.100,157.052 42.427,157.626 41.672 C 166.856 29.536,186.219 21.556,201.200 23.715 " stroke="none" fill="#eb463e" fill-rule="evenodd"></path><path id="path1" d="M136.602 27.163 C 129.291 28.474,125.955 38.279,130.936 43.813 C 134.937 48.256,142.532 48.724,144.694 44.659 C 145.167 43.771,146.322 41.895,147.262 40.491 C 149.217 37.569,149.344 36.904,148.461 34.214 C 146.763 29.041,141.982 26.199,136.602 27.163 M261.506 27.162 C 249.303 29.785,252.207 48.278,264.675 47.338 C 274.602 46.589,277.474 32.551,268.582 28.234 C 267.917 27.912,267.169 27.541,266.919 27.410 C 266.315 27.094,262.612 26.925,261.506 27.162 M135.906 50.528 C 135.674 51.130,135.708 53.847,135.949 53.995 C 136.061 54.064,136.706 53.967,137.384 53.780 C 138.061 53.592,139.138 53.368,139.776 53.283 C 140.724 53.156,140.965 53.019,141.085 52.538 C 141.167 52.214,141.302 51.770,141.386 51.552 C 141.506 51.237,141.364 51.153,140.700 51.151 C 140.240 51.149,139.245 50.972,138.490 50.756 C 136.154 50.089,136.077 50.082,135.906 50.528 M262.882 51.087 C 262.089 51.285,261.993 51.710,262.533 52.625 L 263.035 53.477 262.518 59.365 C 262.234 62.603,261.946 65.501,261.878 65.805 C 261.687 66.659,261.077 66.232,260.793 65.045 C 260.655 64.473,260.424 63.584,260.278 63.069 C 260.132 62.555,259.909 61.769,259.783 61.323 C 258.622 57.211,257.028 51.871,256.899 51.662 C 256.649 51.259,251.295 51.322,251.138 51.730 C 251.069 51.909,251.361 53.117,251.787 54.412 C 255.662 66.207,255.780 78.407,252.135 90.630 L 251.264 93.550 251.334 121.447 L 251.404 149.345 251.964 150.393 C 254.192 154.562,259.340 154.535,261.285 150.343 C 261.724 149.396,261.749 148.276,261.754 128.555 C 261.760 105.156,261.609 106.800,263.755 106.800 C 265.903 106.800,265.752 105.150,265.752 128.606 C 265.752 151.107,265.691 150.080,267.123 151.679 C 269.621 154.468,273.551 153.960,275.523 150.593 L 276.107 149.595 276.174 104.687 C 276.218 75.740,276.328 59.692,276.486 59.534 C 277.290 58.730,277.354 59.764,277.480 75.683 L 277.604 91.454 278.186 92.268 C 279.723 94.424,283.009 94.307,284.342 92.049 C 284.895 91.113,285.010 59.159,284.467 57.145 C 283.467 53.432,280.605 51.727,274.949 51.475 C 271.196 51.307,271.828 50.634,269.747 57.018 C 266.448 67.141,266.569 67.078,266.009 58.966 C 265.860 56.797,265.679 54.832,265.608 54.599 C 265.536 54.367,265.708 53.726,265.989 53.174 C 266.999 51.195,265.766 50.367,262.882 51.087 M125.140 51.578 C 121.837 52.017,119.303 53.836,118.314 56.481 C 117.528 58.581,117.470 90.943,118.250 92.222 C 119.544 94.344,123.033 94.311,124.441 92.163 C 124.861 91.522,124.895 90.418,124.960 75.706 C 125.032 59.390,125.062 58.925,126.003 59.507 C 126.182 59.618,126.263 73.532,126.263 104.192 C 126.263 147.603,126.275 148.748,126.746 149.986 C 128.469 154.521,134.291 154.662,136.349 150.218 C 136.859 149.116,136.871 148.716,136.993 128.010 L 137.118 106.925 138.740 106.925 L 140.362 106.925 140.487 128.135 C 140.611 149.286,140.613 149.348,141.151 150.343 C 143.017 153.795,146.847 154.549,149.423 151.973 C 151.181 150.215,151.083 151.438,151.164 130.195 L 151.237 111.045 149.394 108.610 C 141.702 98.451,137.842 87.398,137.563 74.737 C 137.503 71.993,137.360 69.635,137.246 69.497 C 137.080 69.295,135.368 63.540,133.460 56.769 C 132.997 55.128,132.207 52.565,131.978 51.965 C 131.765 51.408,128.019 51.196,125.140 51.578 " stroke="none" fill="#274666" fill-rule="evenodd"></path><path id="path2" d="M0.000 124.766 L 0.000 249.532 200.000 249.532 L 400.000 249.532 400.000 124.766 L 400.000 0.000 200.000 0.000 L 0.000 0.000 0.000 124.766 M205.365 15.000 C 211.303 15.975,216.847 17.767,222.208 20.445 C 225.335 22.007,229.990 24.724,230.318 25.179 C 230.387 25.274,230.836 25.620,231.316 25.949 C 233.970 27.763,239.054 32.598,241.422 35.558 C 241.971 36.245,242.478 36.862,242.548 36.931 C 242.976 37.349,245.829 41.505,246.402 42.545 C 246.780 43.231,247.176 43.905,247.282 44.042 C 247.678 44.555,249.453 48.086,250.008 49.463 L 250.582 50.890 253.863 50.960 L 257.143 51.029 257.798 53.026 C 258.158 54.124,258.703 55.976,259.008 57.143 C 259.314 58.309,259.649 59.545,259.753 59.888 C 260.107 61.052,260.457 62.255,260.789 63.444 C 261.396 65.621,261.494 65.250,262.168 58.206 L 262.603 53.655 262.034 52.643 C 261.331 51.393,261.438 51.080,262.698 50.702 C 265.917 49.738,267.621 50.919,266.399 53.269 C 266.125 53.797,266.266 58.274,266.685 62.352 L 266.875 64.192 268.834 58.234 C 271.444 50.301,270.912 51.045,274.032 50.957 C 280.522 50.773,284.261 53.220,285.193 58.259 C 285.566 60.276,285.565 89.833,285.193 91.176 C 284.317 94.329,280.406 95.298,278.200 92.909 C 277.135 91.755,277.123 91.584,276.983 75.359 C 276.897 65.409,276.827 75.753,276.788 103.930 C 276.747 134.018,276.644 148.415,276.464 149.095 C 274.950 154.819,268.593 155.673,265.830 150.524 C 265.085 149.136,265.003 146.827,265.003 127.203 L 265.003 107.273 263.693 107.348 L 262.383 107.424 262.258 128.634 L 262.133 149.844 261.425 151.049 C 259.118 154.974,253.669 154.722,251.546 150.593 L 250.905 149.345 250.878 122.577 C 250.864 107.855,250.796 95.753,250.727 95.684 C 250.657 95.615,249.855 97.049,248.943 98.871 C 246.027 104.696,244.394 107.170,240.385 111.833 C 237.192 115.547,230.380 121.397,227.635 122.783 C 227.258 122.973,226.500 123.427,225.951 123.791 C 224.108 125.015,218.242 127.706,215.346 128.655 C 213.768 129.173,212.341 129.699,212.175 129.823 C 211.951 129.992,211.855 132.580,211.801 139.947 C 211.721 150.808,211.795 150.272,210.131 152.099 C 208.158 154.268,204.470 154.303,202.461 152.172 C 200.734 150.340,200.762 150.514,200.624 140.736 C 200.508 132.503,200.468 131.879,200.062 131.899 C 199.822 131.910,199.177 131.938,198.628 131.961 L 197.629 132.002 197.629 140.208 C 197.629 149.268,197.521 150.076,196.076 151.830 C 194.028 154.314,190.030 154.398,187.965 151.999 C 186.550 150.356,186.535 150.254,186.400 141.110 L 186.276 132.626 184.841 136.823 C 183.212 141.588,183.165 141.951,184.040 143.097 C 185.820 145.431,186.146 149.141,184.887 152.714 C 184.476 153.880,182.568 159.551,180.649 165.315 C 178.729 171.079,177.061 176.020,176.943 176.294 C 176.825 176.569,175.471 180.593,173.934 185.237 C 170.568 195.406,170.412 195.873,170.155 196.507 C 170.045 196.781,168.872 200.318,167.550 204.367 C 166.228 208.415,164.980 212.168,164.779 212.706 C 164.577 213.245,163.521 216.389,162.432 219.693 C 161.343 222.998,160.339 225.897,160.201 226.135 C 160.063 226.373,159.950 226.788,159.950 227.056 C 159.950 227.324,159.838 227.613,159.701 227.698 C 159.563 227.783,159.451 228.055,159.451 228.303 C 159.451 230.891,156.098 234.810,153.884 234.810 C 152.665 234.810,134.485 228.776,133.227 227.954 C 131.519 226.839,130.861 224.120,131.594 221.210 C 131.948 219.804,138.283 200.582,138.748 199.501 C 138.867 199.226,141.330 191.871,144.223 183.157 C 147.116 174.442,149.583 167.087,149.705 166.812 C 149.827 166.538,150.433 164.741,151.051 162.820 C 152.333 158.838,156.618 146.105,156.930 145.352 C 157.044 145.078,157.446 143.899,157.822 142.732 C 158.943 139.262,160.483 137.553,163.475 136.463 C 165.370 135.772,165.718 135.067,168.058 127.179 L 168.637 125.225 167.499 124.559 C 162.286 121.510,157.823 118.095,154.153 114.349 L 151.725 111.870 151.658 130.483 L 151.591 149.095 150.877 150.548 C 149.269 153.824,145.726 154.851,142.811 152.887 C 139.959 150.965,140.007 151.401,139.996 127.435 L 139.988 107.273 138.677 107.348 L 137.367 107.424 137.243 128.509 L 137.118 149.595 136.481 150.842 C 134.411 154.901,128.700 154.829,126.601 150.717 L 126.028 149.595 126.021 104.866 C 126.016 75.218,125.930 60.137,125.764 60.137 C 125.601 60.137,125.514 65.358,125.513 75.296 C 125.512 91.568,125.497 91.764,124.207 93.009 C 121.841 95.291,118.517 94.481,117.413 91.353 C 116.898 89.891,116.864 61.070,117.375 58.266 C 118.339 52.972,121.882 50.767,129.124 50.953 L 132.109 51.029 132.560 52.402 C 133.412 54.997,133.500 55.308,133.500 55.729 C 133.500 55.961,133.600 56.346,133.724 56.585 C 133.991 57.102,134.641 59.248,136.000 64.100 C 137.299 68.740,137.379 68.859,137.596 66.466 C 137.805 64.162,138.505 60.526,139.246 57.891 C 139.536 56.862,139.837 55.739,139.914 55.396 C 139.991 55.053,140.173 54.623,140.317 54.441 C 140.989 53.593,139.223 53.540,137.024 54.342 C 135.620 54.853,135.245 54.447,135.250 52.416 C 135.257 49.662,135.367 49.600,138.865 50.392 C 141.034 50.884,141.641 50.621,142.464 48.833 C 143.305 47.004,143.259 46.822,142.084 47.312 C 134.564 50.455,125.932 42.094,128.529 34.183 C 131.967 23.713,146.743 24.200,149.115 34.862 C 149.599 37.039,149.627 37.046,150.949 35.332 C 156.192 28.536,167.040 20.931,175.920 17.827 C 185.691 14.410,195.842 13.436,205.365 15.000 M191.516 23.940 C 187.412 24.350,181.259 25.772,178.540 26.939 C 172.439 29.559,168.829 31.667,164.816 34.951 C 156.019 42.152,149.963 52.160,147.764 63.132 C 147.612 63.886,147.348 65.122,147.176 65.876 C 146.690 68.013,146.781 78.166,147.310 80.848 C 148.002 84.355,148.123 84.885,148.702 86.919 C 150.195 92.170,155.084 101.760,157.184 103.556 C 157.264 103.624,157.849 104.298,158.484 105.053 C 160.001 106.857,163.466 110.231,165.190 111.582 C 165.945 112.173,166.706 112.794,166.882 112.962 C 168.153 114.175,177.753 119.276,178.766 119.276 C 178.969 119.276,179.196 119.375,179.270 119.496 C 179.345 119.617,179.661 119.778,179.971 119.853 C 180.282 119.928,180.986 120.117,181.535 120.271 C 183.761 120.898,184.383 121.048,186.775 121.536 C 191.737 122.550,199.376 122.650,204.242 121.766 C 207.852 121.110,211.607 120.090,213.534 119.243 C 214.116 118.987,214.655 118.777,214.732 118.777 C 215.313 118.777,222.300 115.129,223.456 114.222 C 223.593 114.114,224.538 113.417,225.556 112.674 C 246.407 97.436,251.658 67.880,237.391 46.063 C 236.485 44.677,235.673 43.487,235.587 43.419 C 235.501 43.350,235.102 42.845,234.700 42.296 C 230.936 37.155,222.997 31.015,216.344 28.099 C 213.450 26.831,213.238 26.745,212.227 26.436 C 211.678 26.269,210.948 26.039,210.605 25.926 C 205.586 24.271,197.073 23.385,191.516 23.940 M266.103 26.808 C 277.504 29.778,277.003 45.574,265.439 47.731 C 261.036 48.552,255.613 45.622,254.072 41.590 C 252.978 38.729,252.867 37.408,253.479 34.560 C 254.644 29.141,260.724 25.407,266.103 26.808 M80.399 26.978 C 87.165 28.403,90.779 35.636,87.769 41.728 C 83.879 49.598,72.822 49.458,69.048 41.491 C 65.521 34.045,72.371 25.288,80.399 26.978 M322.945 26.976 C 328.569 28.149,332.259 33.323,331.337 38.744 C 329.899 47.202,319.791 50.515,313.764 44.504 C 306.642 37.402,313.170 24.937,322.945 26.976 M201.570 33.649 C 212.077 37.635,213.853 51.752,204.617 57.868 C 194.029 64.878,180.513 55.331,183.652 43.059 C 185.595 35.461,194.298 30.891,201.570 33.649 M81.104 51.033 C 81.465 51.256,81.400 52.076,80.950 52.945 C 80.433 53.946,80.986 65.572,81.526 65.033 C 81.606 64.953,82.694 61.825,83.943 58.083 L 86.213 51.279 88.085 51.201 C 94.833 50.919,98.759 53.345,99.570 58.300 C 99.936 60.530,99.860 90.489,99.487 91.555 C 98.749 93.661,95.633 94.713,93.920 93.434 C 92.080 92.060,92.210 93.339,92.134 75.921 C 92.068 60.648,92.001 59.348,91.300 59.780 C 91.173 59.859,91.078 78.851,91.077 104.506 L 91.074 149.095 90.489 150.353 C 88.485 154.656,83.259 154.822,80.951 150.656 L 80.225 149.345 80.154 128.185 L 80.084 107.026 78.532 107.100 L 76.981 107.174 76.856 128.384 L 76.731 149.595 76.158 150.593 C 73.783 154.732,69.017 154.732,66.587 150.593 L 66.001 149.595 65.936 104.813 C 65.873 62.148,65.823 59.110,65.194 59.738 C 65.089 59.843,64.947 67.105,64.878 75.875 L 64.754 91.821 63.694 92.881 C 61.875 94.698,58.942 94.265,57.701 91.995 C 57.165 91.017,56.895 61.329,57.395 58.418 C 58.276 53.291,61.680 51.146,68.919 51.158 C 71.956 51.163,71.800 50.966,73.358 56.769 C 73.469 57.180,73.967 58.921,74.465 60.636 C 74.964 62.352,75.541 64.349,75.749 65.074 C 76.218 66.712,76.606 66.544,76.606 64.705 C 76.606 63.939,76.715 62.346,76.848 61.164 C 77.708 53.535,77.709 53.499,77.136 52.694 C 76.419 51.687,76.465 51.195,77.293 51.012 C 77.670 50.929,78.091 50.817,78.228 50.763 C 78.562 50.633,80.796 50.843,81.104 51.033 M314.702 52.527 C 314.934 53.213,315.484 54.953,315.924 56.394 C 316.363 57.835,316.886 59.520,317.085 60.137 C 317.459 61.301,319.893 69.254,320.578 71.553 C 320.792 72.274,321.111 72.863,321.285 72.863 C 321.647 72.863,322.182 71.353,326.765 57.392 C 328.945 50.751,328.660 51.163,331.081 51.158 C 336.672 51.146,339.815 52.573,341.419 55.852 L 342.233 57.517 342.233 74.529 C 342.233 91.322,342.227 91.550,341.719 92.231 C 339.973 94.569,337.143 94.633,335.419 92.374 L 334.747 91.493 334.623 75.649 C 334.534 64.369,334.418 59.778,334.221 59.712 C 333.660 59.525,333.617 62.817,333.619 105.303 C 333.621 149.157,333.606 149.840,332.648 151.187 C 330.582 154.088,327.144 154.499,324.682 152.140 C 322.768 150.305,322.895 151.971,322.895 128.664 C 322.895 117.210,322.826 107.661,322.743 107.444 C 322.627 107.141,322.221 107.049,320.996 107.049 L 319.401 107.049 319.401 127.715 C 319.401 150.375,319.429 149.921,317.918 151.747 C 315.066 155.196,309.666 153.675,308.682 149.146 C 308.507 148.340,308.422 133.507,308.422 103.793 C 308.422 73.812,308.340 59.638,308.166 59.638 C 307.508 59.638,307.424 61.494,307.424 76.023 C 307.424 89.443,307.378 91.224,307.019 91.982 C 305.752 94.651,301.703 94.659,300.246 91.995 C 299.532 90.691,299.760 58.397,300.496 56.394 C 301.833 52.760,305.250 51.146,311.414 51.237 L 314.281 51.279 314.702 52.527 M214.988 64.889 C 218.960 65.588,221.941 67.553,223.376 70.416 C 224.748 73.155,224.691 72.383,224.773 89.357 L 224.849 105.227 223.630 105.734 C 222.677 106.130,219.569 108.436,218.840 109.287 C 217.728 110.586,214.966 111.883,214.588 111.284 C 214.451 111.067,214.353 103.871,214.348 93.699 C 214.341 77.559,214.258 75.365,213.675 75.949 C 213.565 76.059,213.518 84.035,213.572 93.672 C 213.676 112.476,213.702 112.060,212.399 112.582 C 202.810 116.421,190.592 116.374,181.347 112.461 L 180.412 112.065 180.412 94.101 C 180.412 76.391,180.352 75.011,179.639 76.138 C 179.519 76.327,179.418 84.230,179.414 93.699 C 179.409 103.169,179.307 111.073,179.187 111.263 C 178.720 111.999,177.074 111.089,173.826 108.297 C 172.788 107.405,171.290 106.335,170.498 105.920 L 169.058 105.164 169.058 89.451 L 169.058 73.737 169.655 72.115 C 171.076 68.252,174.016 65.821,178.291 64.974 C 180.264 64.583,212.822 64.508,214.988 64.889 " stroke="none" fill="#fbfbfb" fill-rule="evenodd"></path><path id="path3" d="M193.970 33.405 C 187.148 34.619,182.020 42.759,183.779 49.582 C 186.937 61.831,203.795 63.679,208.984 52.345 C 213.674 42.100,205.198 31.407,193.970 33.405 M179.363 65.150 C 174.303 65.824,170.993 68.469,169.710 72.863 C 169.517 73.524,169.242 102.975,169.410 104.941 C 169.422 105.084,169.853 105.354,170.368 105.540 C 171.440 105.926,172.750 106.881,174.923 108.862 C 176.539 110.334,177.912 111.127,178.612 110.992 C 179.010 110.916,179.044 109.704,179.103 93.589 C 179.160 78.178,179.211 76.219,179.564 75.830 C 180.662 74.616,180.661 74.597,180.661 93.730 L 180.661 111.798 181.597 112.203 C 182.945 112.787,183.451 112.976,184.155 113.159 C 184.498 113.248,185.172 113.426,185.652 113.553 C 192.301 115.319,200.145 115.588,206.238 114.258 C 207.955 113.883,211.856 112.569,212.539 112.135 L 213.100 111.779 213.100 93.849 C 213.100 75.162,213.110 74.997,214.107 75.613 C 214.421 75.807,214.491 78.329,214.598 93.378 L 214.722 110.917 215.346 110.987 C 216.074 111.068,217.415 110.175,220.201 107.753 C 221.256 106.836,222.620 105.882,223.233 105.632 C 224.717 105.027,224.629 106.167,224.521 88.929 C 224.426 73.845,224.421 73.725,223.852 72.117 C 222.620 68.631,220.351 66.652,216.220 65.460 C 214.524 64.970,182.721 64.703,179.363 65.150 M209.732 130.170 C 207.859 130.692,205.148 131.196,203.157 131.392 C 202.180 131.488,201.258 131.716,201.107 131.897 C 200.621 132.483,200.922 149.125,201.439 150.254 C 203.724 155.240,210.829 154.109,211.473 148.657 C 211.727 146.508,211.511 129.930,211.229 129.872 C 211.092 129.845,210.418 129.979,209.732 130.170 M186.650 140.161 L 186.650 149.131 187.336 150.486 C 189.628 155.010,195.658 154.287,197.085 149.316 C 197.615 147.471,197.490 132.327,196.943 132.043 C 196.703 131.918,194.934 131.746,193.013 131.660 C 191.092 131.574,188.874 131.433,188.085 131.348 L 186.650 131.192 186.650 140.161 " stroke="none" fill="#0eacbc" fill-rule="evenodd"></path><path id="path4" d="M191.142 14.463 C 187.127 14.765,179.606 16.245,180.014 16.653 C 180.081 16.721,181.069 16.544,182.208 16.259 C 187.006 15.061,190.654 14.636,196.132 14.636 C 201.610 14.636,205.258 15.061,210.056 16.259 C 211.195 16.544,212.179 16.725,212.243 16.661 C 212.430 16.474,208.455 15.508,205.365 14.990 C 202.034 14.431,195.017 14.171,191.142 14.463 M176.669 17.568 C 167.141 20.852,156.392 28.276,150.949 35.332 C 149.627 37.046,149.599 37.039,149.115 34.862 C 146.743 24.200,131.967 23.713,128.529 34.183 C 125.932 42.094,134.564 50.455,142.084 47.312 C 143.259 46.822,143.305 47.004,142.464 48.833 C 141.641 50.621,141.034 50.884,138.865 50.392 C 135.367 49.600,135.257 49.662,135.250 52.416 C 135.245 54.447,135.620 54.853,137.024 54.342 C 139.223 53.540,140.989 53.593,140.317 54.441 C 140.173 54.623,139.991 55.053,139.914 55.396 C 139.837 55.739,139.536 56.862,139.246 57.891 C 138.505 60.526,137.805 64.162,137.596 66.466 C 137.379 68.859,137.299 68.740,136.000 64.100 C 134.641 59.248,133.991 57.102,133.724 56.585 C 133.600 56.346,133.500 55.961,133.500 55.729 C 133.500 55.308,133.412 54.997,132.560 52.402 L 132.109 51.029 129.124 50.953 C 121.882 50.767,118.339 52.972,117.375 58.266 C 116.864 61.070,116.898 89.891,117.413 91.353 C 118.517 94.481,121.841 95.291,124.207 93.009 C 125.497 91.764,125.512 91.568,125.513 75.296 C 125.514 65.358,125.601 60.137,125.764 60.137 C 125.930 60.137,126.016 75.218,126.021 104.866 L 126.028 149.595 126.601 150.717 C 128.700 154.829,134.411 154.901,136.481 150.842 L 137.118 149.595 137.243 128.509 L 137.367 107.424 138.677 107.348 L 139.988 107.273 139.996 127.435 C 140.007 151.401,139.959 150.965,142.811 152.887 C 145.726 154.851,149.269 153.824,150.877 150.548 L 151.591 149.095 151.658 130.483 L 151.725 111.870 154.153 114.349 C 157.823 118.095,162.286 121.510,167.499 124.559 L 168.637 125.225 168.056 127.179 C 167.737 128.254,167.285 129.672,167.053 130.332 C 166.821 130.991,166.688 131.588,166.758 131.657 C 166.957 131.857,168.996 125.538,168.852 125.165 C 168.782 124.982,167.957 124.408,167.020 123.889 C 162.711 121.507,158.407 118.182,154.312 114.071 C 152.789 112.542,151.474 111.291,151.390 111.291 C 151.306 111.291,151.204 119.853,151.164 130.318 C 151.083 151.423,151.180 150.216,149.423 151.973 C 146.847 154.549,143.017 153.795,141.151 150.343 C 140.613 149.348,140.611 149.286,140.487 128.135 L 140.362 106.925 138.740 106.925 L 137.118 106.925 136.993 128.010 C 136.871 148.716,136.859 149.116,136.349 150.218 C 134.291 154.662,128.469 154.521,126.746 149.986 C 126.275 148.748,126.263 147.603,126.263 104.192 C 126.263 73.532,126.182 59.618,126.003 59.507 C 125.062 58.925,125.032 59.390,124.960 75.706 C 124.895 90.418,124.861 91.522,124.441 92.163 C 123.033 94.311,119.544 94.344,118.250 92.222 C 117.470 90.943,117.528 58.581,118.314 56.481 C 119.619 52.993,122.158 51.688,128.062 51.471 L 131.733 51.336 131.962 51.931 C 132.202 52.554,132.978 55.060,133.460 56.769 C 135.496 63.992,137.075 69.288,137.246 69.465 C 137.475 69.703,137.593 69.145,138.003 65.876 C 138.373 62.931,139.151 59.157,139.906 56.644 C 140.257 55.477,140.600 54.214,140.668 53.837 L 140.792 53.152 139.579 53.313 C 138.912 53.401,137.869 53.620,137.262 53.799 C 135.823 54.225,135.745 54.148,135.749 52.325 C 135.755 50.115,135.900 49.967,137.534 50.504 C 141.081 51.668,141.604 51.471,142.962 48.457 C 143.955 46.253,143.951 46.248,141.857 46.895 C 129.767 50.629,123.037 33.397,134.442 27.908 C 140.778 24.858,148.971 29.829,148.971 36.722 C 148.971 37.763,149.256 37.941,149.768 37.219 C 155.583 29.009,167.178 20.908,178.104 17.420 C 179.586 16.946,180.036 16.699,179.351 16.735 C 179.180 16.744,177.973 17.119,176.669 17.568 M212.976 16.971 C 213.250 17.091,214.766 17.651,216.344 18.215 C 230.125 23.141,242.113 33.901,248.528 47.100 C 249.378 48.849,250.220 50.552,250.399 50.885 C 250.718 51.477,250.779 51.487,253.721 51.428 C 255.704 51.389,256.775 51.462,256.888 51.645 C 257.026 51.867,258.589 57.092,259.783 61.323 C 259.909 61.769,260.132 62.555,260.278 63.069 C 260.424 63.584,260.655 64.473,260.793 65.045 C 261.077 66.232,261.687 66.659,261.878 65.805 C 262.528 62.897,263.008 53.413,262.543 52.649 C 261.891 51.577,262.079 51.212,263.383 51.016 C 266.182 50.596,266.971 51.250,265.989 53.174 C 265.708 53.726,265.536 54.367,265.608 54.599 C 265.679 54.832,265.860 56.797,266.009 58.966 C 266.568 67.061,266.455 67.120,269.747 57.018 C 271.828 50.634,271.196 51.307,274.949 51.475 C 280.605 51.727,283.467 53.432,284.467 57.145 C 285.010 59.159,284.895 91.113,284.342 92.049 C 283.009 94.307,279.723 94.424,278.186 92.268 L 277.604 91.454 277.480 75.683 C 277.354 59.764,277.290 58.730,276.486 59.534 C 276.328 59.692,276.218 75.740,276.174 104.687 L 276.107 149.595 275.523 150.593 C 273.551 153.960,269.621 154.468,267.123 151.679 C 265.691 150.080,265.752 151.107,265.752 128.606 C 265.752 105.150,265.903 106.800,263.755 106.800 C 261.609 106.800,261.760 105.156,261.754 128.555 C 261.749 148.276,261.724 149.396,261.285 150.343 C 259.340 154.535,254.192 154.562,251.964 150.393 L 251.404 149.345 251.279 121.522 L 251.154 93.699 250.432 95.197 C 247.614 101.043,246.779 102.588,244.866 105.493 C 237.955 115.986,226.594 124.698,214.824 128.531 L 211.478 129.620 211.556 138.484 C 211.647 148.903,211.594 149.553,210.525 151.152 C 208.218 154.604,203.205 154.108,201.439 150.254 C 200.922 149.125,200.621 132.483,201.107 131.897 C 201.258 131.716,202.180 131.488,203.157 131.392 C 205.099 131.201,208.630 130.567,208.821 130.376 C 209.002 130.195,208.566 130.229,207.083 130.513 C 203.761 131.148,199.917 131.503,195.883 131.547 C 191.898 131.591,191.750 131.607,194.187 131.736 C 195.656 131.814,196.980 132.000,197.129 132.149 C 197.442 132.464,197.359 148.684,197.039 149.719 C 196.859 150.303,196.868 150.311,197.176 149.844 C 197.428 149.461,197.522 147.332,197.579 140.674 L 197.654 132.002 198.640 131.961 C 199.182 131.938,199.822 131.910,200.062 131.899 C 200.468 131.879,200.508 132.503,200.624 140.736 C 200.762 150.514,200.734 150.340,202.461 152.172 C 204.470 154.303,208.158 154.268,210.131 152.099 C 211.795 150.272,211.721 150.808,211.801 139.947 C 211.855 132.580,211.951 129.992,212.175 129.823 C 212.341 129.699,213.768 129.173,215.346 128.655 C 218.242 127.706,224.108 125.015,225.951 123.791 C 226.500 123.427,227.258 122.973,227.635 122.783 C 230.380 121.397,237.192 115.547,240.385 111.833 C 244.394 107.170,246.027 104.696,248.943 98.871 C 249.855 97.049,250.657 95.615,250.727 95.684 C 250.796 95.753,250.864 107.855,250.878 122.577 L 250.905 149.345 251.546 150.593 C 253.669 154.722,259.118 154.974,261.425 151.049 L 262.133 149.844 262.258 128.634 L 262.383 107.424 263.693 107.348 L 265.003 107.273 265.003 127.203 C 265.003 146.827,265.085 149.136,265.830 150.524 C 268.593 155.673,274.950 154.819,276.464 149.095 C 276.644 148.415,276.747 134.018,276.788 103.930 C 276.827 75.753,276.897 65.409,276.983 75.359 C 277.123 91.584,277.135 91.755,278.200 92.909 C 280.406 95.298,284.317 94.329,285.193 91.176 C 285.565 89.833,285.566 60.276,285.193 58.259 C 284.261 53.220,280.522 50.773,274.032 50.957 C 270.912 51.045,271.444 50.301,268.834 58.234 L 266.875 64.192 266.685 62.352 C 266.266 58.274,266.125 53.797,266.399 53.269 C 267.621 50.919,265.917 49.738,262.698 50.702 C 261.438 51.080,261.331 51.393,262.034 52.643 L 262.603 53.655 262.168 58.206 C 261.494 65.246,261.394 65.628,260.794 63.444 C 260.615 62.792,260.381 61.978,260.275 61.634 C 259.893 60.399,259.564 59.228,259.013 57.143 C 258.705 55.976,258.158 54.124,257.798 53.026 L 257.143 51.029 253.863 50.960 L 250.582 50.890 250.008 49.463 C 249.453 48.086,247.678 44.555,247.282 44.042 C 247.176 43.905,246.780 43.231,246.402 42.545 C 245.829 41.505,242.976 37.349,242.548 36.931 C 242.478 36.862,241.971 36.245,241.422 35.558 C 239.054 32.598,233.970 27.763,231.316 25.949 C 230.836 25.620,230.387 25.274,230.318 25.179 C 229.527 24.081,219.966 19.134,215.880 17.708 C 213.346 16.823,211.661 16.396,212.976 16.971 M191.391 23.676 C 190.911 23.761,193.036 23.831,196.114 23.832 C 199.193 23.832,201.270 23.755,200.731 23.659 C 199.543 23.448,192.610 23.461,191.391 23.676 M185.652 24.562 C 174.952 26.858,163.642 33.763,157.626 41.672 C 157.052 42.427,156.513 43.100,156.427 43.169 C 154.502 44.711,149.452 55.073,148.111 60.232 C 146.590 66.089,146.029 75.694,146.929 80.474 C 148.125 86.820,148.882 89.193,151.666 95.321 C 151.884 95.802,152.779 97.374,153.655 98.815 C 155.055 101.118,155.867 102.285,157.819 104.798 C 159.921 107.504,165.749 112.641,169.228 114.853 C 172.967 117.231,179.856 120.444,179.305 119.553 C 179.211 119.401,178.969 119.276,178.766 119.276 C 177.753 119.276,168.153 114.175,166.882 112.962 C 166.706 112.794,165.945 112.173,165.190 111.582 C 163.466 110.231,160.001 106.857,158.484 105.053 C 157.849 104.298,157.264 103.624,157.184 103.556 C 155.084 101.760,150.195 92.170,148.702 86.919 C 148.123 84.885,148.002 84.355,147.310 80.848 C 146.781 78.166,146.690 68.013,147.176 65.876 C 147.348 65.122,147.612 63.886,147.764 63.132 C 149.963 52.160,156.019 42.152,164.816 34.951 C 168.829 31.667,172.439 29.559,178.540 26.939 C 180.355 26.160,183.545 25.297,187.274 24.575 C 189.024 24.237,189.853 23.997,189.270 23.998 C 188.721 23.999,187.093 24.253,185.652 24.562 M204.367 24.450 C 206.701 24.890,209.382 25.525,210.605 25.926 C 210.948 26.039,211.678 26.269,212.227 26.436 C 213.238 26.745,213.450 26.831,216.344 28.099 C 222.997 31.015,230.936 37.155,234.700 42.296 C 235.102 42.845,235.501 43.350,235.587 43.419 C 235.673 43.487,236.485 44.677,237.391 46.063 C 251.658 67.880,246.407 97.436,225.556 112.674 C 224.538 113.417,223.593 114.114,223.456 114.222 C 222.341 115.097,215.319 118.777,214.765 118.777 C 214.465 118.777,212.813 119.571,212.910 119.668 C 213.323 120.081,220.087 116.740,223.702 114.339 C 232.300 108.627,238.046 101.425,242.560 90.705 C 243.110 89.398,243.646 87.622,244.520 84.217 C 246.173 77.778,246.119 67.761,244.398 61.469 C 244.178 60.668,243.910 59.676,243.801 59.264 C 240.327 46.118,229.441 33.589,216.469 27.805 C 212.071 25.844,205.113 23.904,202.745 23.979 C 202.333 23.992,203.063 24.203,204.367 24.450 M261.260 26.821 C 257.296 27.911,254.259 30.931,253.479 34.560 C 253.006 36.764,252.968 37.527,253.267 38.883 C 255.823 50.489,271.083 50.977,274.145 39.551 C 276.126 32.160,268.662 24.786,261.260 26.821 M76.222 27.048 C 68.241 28.987,65.402 38.786,71.169 44.486 C 76.311 49.568,84.573 48.195,87.769 41.728 C 91.580 34.016,84.515 25.033,76.222 27.048 M318.777 27.052 C 308.357 29.638,307.933 43.306,318.153 47.193 C 323.506 49.229,330.294 44.879,331.337 38.744 C 332.540 31.674,325.722 25.328,318.777 27.052 M266.919 27.410 C 267.169 27.541,267.917 27.912,268.582 28.234 C 277.474 32.551,274.602 46.589,264.675 47.338 C 253.521 48.179,249.219 33.120,259.176 28.086 C 261.370 26.976,265.414 26.623,266.919 27.410 M193.637 33.194 C 190.504 33.847,186.643 36.750,184.949 39.728 C 184.140 41.149,183.297 43.735,183.480 44.235 C 183.541 44.403,183.674 44.092,183.774 43.543 C 184.419 40.017,187.529 36.227,191.266 34.413 L 193.512 33.324 196.756 33.324 C 212.060 33.325,215.620 54.546,201.112 59.291 C 199.714 59.748,199.463 60.018,200.685 59.749 C 206.094 58.561,210.605 52.588,210.605 46.612 C 210.605 37.760,202.498 31.349,193.637 33.194 M183.242 46.538 C 183.243 47.636,183.287 48.054,183.340 47.467 C 183.392 46.880,183.392 45.982,183.338 45.471 C 183.284 44.960,183.241 45.440,183.242 46.538 M183.547 49.512 C 184.238 54.119,190.177 60.071,193.886 59.873 C 194.092 59.862,193.698 59.660,193.009 59.425 C 188.749 57.971,183.999 53.069,183.888 50.013 C 183.878 49.748,183.764 49.308,183.635 49.033 C 183.464 48.669,183.440 48.798,183.547 49.512 M78.228 50.763 C 78.091 50.817,77.670 50.929,77.293 51.012 C 76.465 51.195,76.419 51.687,77.136 52.694 C 77.709 53.499,77.708 53.535,76.848 61.164 C 76.715 62.346,76.606 63.939,76.606 64.705 C 76.606 66.544,76.218 66.712,75.749 65.074 C 75.541 64.349,74.964 62.352,74.465 60.636 C 73.967 58.921,73.469 57.180,73.358 56.769 C 71.800 50.966,71.956 51.163,68.919 51.158 C 61.680 51.146,58.276 53.291,57.395 58.418 C 56.895 61.329,57.165 91.017,57.701 91.995 C 58.942 94.265,61.875 94.698,63.694 92.881 L 64.754 91.821 64.878 75.875 C 64.947 67.105,65.089 59.843,65.194 59.738 C 65.823 59.110,65.873 62.148,65.936 104.813 L 66.001 149.595 66.587 150.593 C 69.017 154.732,73.783 154.732,76.158 150.593 L 76.731 149.595 76.856 128.384 L 76.981 107.174 78.532 107.100 L 80.084 107.026 80.154 128.185 L 80.225 149.345 80.951 150.656 C 83.259 154.822,88.485 154.656,90.489 150.353 L 91.074 149.095 91.077 104.506 C 91.078 78.851,91.173 59.859,91.300 59.780 C 92.001 59.348,92.068 60.648,92.134 75.921 C 92.210 93.339,92.080 92.060,93.920 93.434 C 95.633 94.713,98.749 93.661,99.487 91.555 C 99.860 90.489,99.936 60.530,99.570 58.300 C 98.759 53.345,94.833 50.919,88.085 51.201 L 86.213 51.279 83.943 58.083 C 82.694 61.825,81.606 64.953,81.526 65.033 C 80.986 65.572,80.433 53.946,80.950 52.945 C 81.400 52.076,81.465 51.256,81.104 51.033 C 80.796 50.843,78.562 50.633,78.228 50.763 M306.925 51.497 C 303.784 52.083,301.420 53.883,300.496 56.394 C 299.760 58.397,299.532 90.691,300.246 91.995 C 301.703 94.659,305.752 94.651,307.019 91.982 C 307.378 91.224,307.424 89.443,307.424 76.023 C 307.424 61.494,307.508 59.638,308.166 59.638 C 308.340 59.638,308.422 73.812,308.422 103.793 C 308.422 133.507,308.507 148.340,308.682 149.146 C 309.666 153.675,315.066 155.196,317.918 151.747 C 319.429 149.921,319.401 150.375,319.401 127.715 L 319.401 107.049 320.996 107.049 C 322.221 107.049,322.627 107.141,322.743 107.444 C 322.826 107.661,322.895 117.210,322.895 128.664 C 322.895 151.971,322.768 150.305,324.682 152.140 C 327.144 154.499,330.582 154.088,332.648 151.187 C 333.606 149.840,333.621 149.157,333.619 105.303 C 333.617 62.817,333.660 59.525,334.221 59.712 C 334.418 59.778,334.534 64.369,334.623 75.649 L 334.747 91.493 335.419 92.374 C 337.143 94.633,339.973 94.569,341.719 92.231 C 342.227 91.550,342.233 91.322,342.233 74.529 L 342.233 57.517 341.419 55.852 C 339.815 52.573,336.672 51.146,331.081 51.158 C 328.660 51.163,328.945 50.751,326.765 57.392 C 322.182 71.353,321.647 72.863,321.285 72.863 C 321.111 72.863,320.792 72.274,320.578 71.553 C 319.893 69.254,317.459 61.301,317.085 60.137 C 316.886 59.520,316.363 57.835,315.924 56.394 C 315.484 54.953,314.934 53.213,314.702 52.527 L 314.281 51.279 311.414 51.237 C 309.837 51.213,307.817 51.331,306.925 51.497 M195.571 60.072 C 196.291 60.122,197.470 60.122,198.191 60.072 C 198.911 60.021,198.322 59.980,196.881 59.980 C 195.440 59.980,194.850 60.021,195.571 60.072 M178.291 64.974 C 174.016 65.821,171.076 68.252,169.655 72.115 L 169.058 73.737 169.058 89.451 L 169.058 105.164 170.498 105.920 C 171.290 106.335,172.788 107.405,173.826 108.297 C 177.074 111.089,178.720 111.999,179.187 111.263 C 179.307 111.073,179.409 103.169,179.414 93.699 C 179.418 84.230,179.519 76.327,179.639 76.138 C 180.352 75.011,180.412 76.391,180.412 94.097 L 180.412 112.058 181.574 112.556 C 182.213 112.830,182.858 113.007,183.008 112.950 C 183.159 112.893,183.057 112.769,182.782 112.675 C 182.508 112.580,181.918 112.344,181.472 112.151 L 180.661 111.798 180.661 93.730 C 180.661 74.597,180.662 74.616,179.564 75.830 C 179.211 76.219,179.160 78.178,179.103 93.589 C 179.044 109.704,179.010 110.916,178.612 110.992 C 177.912 111.127,176.539 110.334,174.923 108.862 C 172.750 106.881,171.440 105.926,170.368 105.540 C 169.853 105.354,169.422 105.084,169.410 104.941 C 169.242 102.975,169.517 73.524,169.710 72.863 C 170.847 68.967,173.352 66.645,177.719 65.437 C 180.138 64.768,213.642 64.776,216.095 65.446 C 220.287 66.591,222.603 68.583,223.852 72.117 C 224.421 73.725,224.426 73.845,224.521 88.929 C 224.629 106.167,224.717 105.027,223.233 105.632 C 222.620 105.882,221.256 106.836,220.201 107.753 C 217.415 110.175,216.074 111.068,215.346 110.987 L 214.722 110.917 214.598 93.378 C 214.491 78.329,214.421 75.807,214.107 75.613 C 213.110 74.997,213.100 75.162,213.100 93.849 L 213.100 111.779 212.539 112.135 C 211.856 112.569,207.955 113.883,206.238 114.258 C 200.095 115.599,192.280 115.320,185.527 113.519 C 184.978 113.373,184.248 113.202,183.905 113.140 L 183.281 113.027 183.874 113.286 C 190.984 116.385,203.684 116.072,212.399 112.582 C 213.702 112.060,213.676 112.476,213.572 93.672 C 213.518 84.035,213.565 76.059,213.675 75.949 C 214.258 75.365,214.341 77.559,214.348 93.699 C 214.353 103.871,214.451 111.067,214.588 111.284 C 214.966 111.883,217.728 110.586,218.840 109.287 C 219.569 108.436,222.677 106.130,223.630 105.734 L 224.849 105.227 224.773 89.357 C 224.691 72.383,224.748 73.155,223.376 70.416 C 221.941 67.553,218.960 65.588,214.988 64.889 C 212.822 64.508,180.264 64.583,178.291 64.974 M179.663 119.841 C 180.090 120.315,185.131 121.617,189.145 122.289 C 191.663 122.710,200.182 122.712,202.870 122.291 C 205.548 121.872,210.813 120.626,211.900 120.154 C 213.029 119.663,212.242 119.688,210.855 120.186 C 209.617 120.631,209.187 120.735,205.365 121.512 C 199.757 122.652,192.289 122.662,186.775 121.536 C 184.130 120.996,183.602 120.864,180.162 119.880 C 179.819 119.782,179.595 119.764,179.663 119.841 M209.607 130.006 C 209.111 130.327,209.734 130.327,210.480 130.006 L 210.979 129.792 210.480 129.778 C 210.206 129.771,209.813 129.873,209.607 130.006 M186.353 131.483 C 185.599 133.407,183.382 140.296,183.484 140.398 C 183.550 140.464,184.205 138.742,184.940 136.572 L 186.276 132.626 186.400 141.110 C 186.547 151.066,186.689 151.623,189.470 153.185 C 191.867 154.531,196.940 152.758,196.873 150.598 C 196.869 150.458,196.701 150.568,196.502 150.842 C 193.803 154.547,189.305 154.372,187.336 150.486 L 186.650 149.131 186.650 140.169 L 186.650 131.207 189.083 131.335 C 191.568 131.466,191.346 131.379,188.312 131.034 C 186.632 130.843,186.601 130.850,186.353 131.483 M165.947 133.624 C 165.232 135.802,165.169 135.879,163.699 136.367 C 160.425 137.455,157.126 141.712,157.219 144.729 C 157.231 145.116,157.446 144.614,158.571 141.565 C 159.353 139.445,160.648 138.099,162.876 137.089 C 163.669 136.731,164.589 136.309,164.921 136.154 C 165.505 135.880,166.794 132.781,166.596 132.127 C 166.555 131.990,166.262 132.664,165.947 133.624 M183.106 141.217 C 182.975 141.670,183.146 142.171,183.787 143.213 C 186.115 146.994,186.037 148.125,182.766 158.058 C 181.315 162.461,180.030 166.288,179.909 166.563 C 179.385 167.749,176.674 176.258,176.785 176.369 C 176.852 176.436,176.962 176.334,177.030 176.143 C 177.098 175.952,178.725 171.079,180.646 165.315 C 182.567 159.551,184.476 153.880,184.887 152.714 C 186.141 149.157,185.819 145.430,184.059 143.122 C 183.721 142.679,183.407 141.933,183.363 141.464 C 183.289 140.687,183.266 140.665,183.106 141.217 M156.847 145.504 C 156.231 147.288,151.932 160.067,151.069 162.683 C 150.459 164.529,149.995 166.143,150.038 166.270 C 150.080 166.397,151.708 161.750,153.655 155.943 C 155.602 150.135,157.144 145.333,157.081 145.270 C 157.019 145.208,156.913 145.313,156.847 145.504 M149.609 166.964 C 149.542 167.155,147.119 174.442,144.225 183.157 C 141.331 191.871,138.864 199.226,138.743 199.501 C 138.288 200.532,136.970 204.926,137.083 205.039 C 137.147 205.103,137.824 203.266,138.586 200.956 C 139.348 198.646,142.227 190.034,144.983 181.817 C 147.738 173.601,149.934 166.819,149.862 166.747 C 149.790 166.675,149.676 166.772,149.609 166.964 M171.583 191.378 C 168.867 199.505,166.700 206.210,166.769 206.278 C 166.837 206.346,167.580 204.288,168.420 201.704 C 169.261 199.120,170.040 196.781,170.152 196.507 C 170.264 196.232,170.487 195.614,170.646 195.134 C 170.806 194.654,172.232 190.403,173.815 185.688 C 175.398 180.972,176.654 176.999,176.607 176.858 C 176.560 176.717,174.299 183.251,171.583 191.378 M134.384 212.523 C 130.532 224.014,130.376 226.092,133.227 227.954 C 134.485 228.776,152.665 234.810,153.884 234.810 C 156.079 234.810,159.538 230.783,159.434 228.351 C 159.424 228.129,159.140 228.662,158.803 229.535 C 156.722 234.918,154.582 235.491,147.224 232.633 C 147.018 232.553,143.824 231.466,140.126 230.218 C 129.920 226.772,129.947 226.854,134.509 213.116 C 135.890 208.959,136.968 205.507,136.907 205.445 C 136.845 205.383,135.710 208.568,134.384 212.523 M165.216 210.408 C 164.509 212.506,163.695 214.953,163.406 215.845 C 163.116 216.737,162.786 217.692,162.671 217.966 C 162.155 219.196,159.975 226.184,160.076 226.285 C 160.212 226.422,160.024 226.949,162.424 219.693 C 163.517 216.389,164.579 213.245,164.783 212.706 C 165.483 210.859,166.715 206.806,166.608 206.700 C 166.549 206.641,165.923 208.310,165.216 210.408 M159.631 226.907 C 159.353 227.614,159.398 227.976,159.724 227.650 C 159.874 227.500,159.955 227.168,159.904 226.914 C 159.814 226.467,159.804 226.467,159.631 226.907 " stroke="none" fill="#b2b4b4" fill-rule="evenodd"></path></g></svg>