<svg id="Capa_1" enable-background="new 0 0 512.006 512.006" height="512" viewBox="0 0 512.006 512.006" width="512" xmlns="http://www.w3.org/2000/svg"><g><path d="m467.006 16.159h-182c-24.901 0-45 20.099-45 45v120c0 5.099 2.701 9.901 7.2 12.9 4.2 2.701 9.901 3.001 14.399.601l58.001-28.5h147.4c24.901 0 45-20.099 45-45v-60c0-24.902-20.099-45.001-45-45.001z" fill="#b3e4ff"/><path d="m512.006 61.159v60c0 24.901-20.099 45-45 45h-91v-150h91c24.901 0 45 20.099 45 45z" fill="#5dacff"/><circle cx="316.006" cy="91.159" fill="#266cb2" r="15"/><circle cx="376.006" cy="91.159" fill="#266cb2" r="15"/><circle cx="436.006" cy="91.159" fill="#114378" r="15"/><path d="m315.006 496.159h-150c-8.291 0-15-6.709-15-15s6.709-15 15-15h150c8.276 0 15-6.724 15-15v-34.439c0-8.291 6.709-15 15-15s15 6.709 15 15v34.438c0 24.815-20.185 45.001-45 45.001z" fill="#b3e4ff"/><path d="m415.758 338.278-98.496-95.464c-5.889-5.713-15.249-5.64-21.05.161-7.69 7.69-13.813 14.048-18.882 19.321-17.915 18.633-19.248 19.6-28.564 20.698-7.69.908-15.542-1.392-21.548-6.313-11.944-9.798-23.857-20.715-35.479-32.256-13.403-13.358-23.051-23.595-35.317-38.54-4.922-5.991-7.222-13.843-6.313-21.533 1.084-9.287 2.065-10.635 20.83-28.682 5.259-5.054 11.572-11.133 19.204-18.765 5.856-5.856 5.859-15.352 0-21.211l-95.464-95.448c-4.702-4.717-11.909-5.728-17.71-2.607-2.124 1.143-5.024 2.373-8.394 3.823-38.477 16.615-69.074 39.109-68.569 84.697.758 68.483 79.288 153.38 128.038 201.962 84.159 83.884 150.207 128.038 201.039 128.038 45.379 0 68.205-32.437 85.767-72.085 1.392-3.164 2.578-5.889 3.677-7.925 3.178-5.903 2.05-13.213-2.769-17.871z" fill="#ff6e83"/><path d="m414.85 364.074c1.392-3.164 2.578-5.889 3.677-7.925 3.179-5.903 2.051-13.213-2.769-17.871l-98.496-95.464c-5.889-5.713-15.249-5.64-21.05.161-7.69 7.69-13.813 14.048-18.882 19.321-17.915 18.633-19.248 19.6-28.564 20.698-7.69.908-15.542-1.392-21.548-6.313-11.944-9.798-23.857-20.715-35.479-32.256l-63.695 63.695c84.159 83.884 150.207 128.038 201.039 128.038 45.379.001 68.205-32.436 85.767-72.084z" fill="#ff3b7f"/><path d="m391.006 91.159c0 8.401-6.599 15-15 15v-30c8.401 0 15 6.599 15 15z" fill="#114378"/></g></svg>