<svg height="512" viewBox="0 0 64 64" width="512" xmlns="http://www.w3.org/2000/svg"><circle cx="43" cy="29.979" fill="#e6e7e8" r="8" transform="matrix(.249 -.969 .969 .249 3.274 64.178)"/><path d="m51 7v12h-38v-12a4 4 0 0 1 4-4h30a4 4 0 0 1 4 4z" fill="#00a651"/><path d="m20 3a4 4 0 0 0 -4 4v12h-3v-12a4 4 0 0 1 4-4z" fill="#009444"/><path d="m34 6h-4v3h-3v4h3v3h4v-3h3v-4h-3z" fill="#f00"/><circle cx="21" cy="30.021" fill="#e6e7e8" r="8" transform="matrix(.707 -.707 .707 .707 -15.077 23.642)"/><path d="m22.01 37.96a8 8 0 1 1 -1.03-15.94 8.723 8.723 0 0 1 1.02.06 8 8 0 0 0 .01 15.88z" fill="#bcbec0"/><path d="m44.01 37.96a8 8 0 1 1 -1.03-15.94 8.723 8.723 0 0 1 1.02.06 8 8 0 0 0 .01 15.88z" fill="#bcbec0"/><path d="m49.312 41.734-7.023-1.109a65.991 65.991 0 0 0 -20.587 0l-7.014 1.107a2 2 0 0 0 -1.688 1.977v7.669a6 6 0 0 0 3.2 5.309l.887.467a32 32 0 0 0 29.808 0l.894-.47a6 6 0 0 0 3.211-5.307v-7.668a2 2 0 0 0 -1.688-1.975z" fill="#00a651"/><path d="m30.861 50.5h16.279v2h-16.279z" fill="#f1f2f2" transform="matrix(.737 -.676 .676 .737 -24.548 39.886)"/><path d="m31.89 48h9.22v2h-9.22z" fill="#f1f2f2" transform="matrix(.759 -.651 .651 .759 -23.097 35.531)"/><path d="m61.992 25.943v-2l-3.29.006a18 18 0 0 0 -7.765 1.788 9.007 9.007 0 0 0 -7.937-4.758h-.018a8.968 8.968 0 0 0 -8.12 5.171 10.818 10.818 0 0 0 -5.738.011 8.971 8.971 0 0 0 -8.124-5.14h-.017a9.021 9.021 0 0 0 -7.939 4.785 18 18 0 0 0 -7.73-1.755h-.036l-3.289.007v2l3.289-.007h.032a16 16 0 0 1 7 1.628 9.05 9.05 0 0 0 -.31 2.359 9 9 0 0 0 9 8.983h.017a9 9 0 0 0 8.983-9.021 9.036 9.036 0 0 0 -.22-1.944 8.806 8.806 0 0 1 4.433-.009 8.983 8.983 0 0 0 8.787 10.932h.018a8.97 8.97 0 0 0 8.654-11.374 16 16 0 0 1 7.03-1.656zm-36.033 9.018a6.95 6.95 0 0 1 -4.946 2.06h-.013a7 7 0 0 1 -.013-14h.013a7 7 0 0 1 4.959 11.94zm22-.042a6.947 6.947 0 0 1 -4.945 2.06h-.014a7 7 0 0 1 -.014-14h.014a7 7 0 0 1 4.959 11.94z" fill="#939598"/><path d="m43.63 58.65a31.934 31.934 0 0 1 -26.54-1.5l-.89-.46a6 6 0 0 1 -3.2-5.31v-7.67a2.009 2.009 0 0 1 1.69-1.98l1.76-.28a1.978 1.978 0 0 0 -.45 1.26v7.67a6 6 0 0 0 3.2 5.31l.89.46a31.921 31.921 0 0 0 23.54 2.5z" fill="#009444"/></svg>